<?xml version="1.0" standalone="no"?>
<!DOCTYPE svg PUBLIC "-//W3C//DTD SVG 1.1//EN" "http://www.w3.org/Graphics/SVG/1.1/DTD/svg11.dtd" >
<svg xmlns="http://www.w3.org/2000/svg">
<metadata></metadata>
<defs>
<font id="thesansrio2016light_italic" horiz-adv-x="1126" >
<font-face units-per-em="2048" ascent="1516" descent="-532" />
<missing-glyph horiz-adv-x="446" />
<glyph unicode="&#x2e;&#x2e;&#x2e;" horiz-adv-x="1251" d="M31 76q0 45 30 74.5t72 29.5q39 0 63.5 -27t24.5 -65q0 -44 -30 -74t-70 -30t-65 27.5t-25 64.5zM436 76q0 45 30 74.5t71 29.5q40 0 65 -27t25 -65q0 -44 -30.5 -74t-70.5 -30t-65 27.5t-25 64.5zM842 76q0 45 29.5 74.5t70.5 29.5q40 0 65 -27t25 -65q0 -44 -30 -74 t-72 -30q-38 0 -63 27.5t-25 64.5z" />
<glyph horiz-adv-x="0" />
<glyph horiz-adv-x="0" />
<glyph horiz-adv-x="682" />
<glyph unicode="&#xd;" horiz-adv-x="1024" />
<glyph unicode=" "  horiz-adv-x="446" />
<glyph unicode="&#x09;" horiz-adv-x="446" />
<glyph unicode="&#xa0;" horiz-adv-x="446" />
<glyph unicode="!" horiz-adv-x="638" d="M164 80q0 41 28.5 69.5t69.5 28.5q40 0 67 -28t27 -68q0 -41 -28 -69.5t-68 -28.5q-41 0 -68.5 28t-27.5 68zM252 315l188 1117h152l-238 -1117h-102z" />
<glyph unicode="&#x22;" horiz-adv-x="677" d="M236 991l57 436h141l-108 -436h-90zM541 991l55 436h143l-108 -436h-90z" />
<glyph unicode="#" horiz-adv-x="1148" d="M53 406l17 88h211l120 409h-204l18 88h211l117 391h104l-117 -391h336l119 391h102l-116 -391h196l-14 -88h-205l-123 -409h201l-16 -88h-211l-119 -406h-102l118 406h-338l-118 -406h-103l117 406h-201zM383 494h340l121 409h-338z" />
<glyph unicode="$" horiz-adv-x="974" d="M80 78l33 127q102 -47 256 -47q153 0 246.5 75.5t93.5 194.5q0 52 -27 93t-70 68t-95.5 51.5t-105 51.5t-95.5 59.5t-70 83t-27 115.5q0 154 112 259t287 124l41 221h101l-43 -217q129 -3 211 -24l-31 -121q-98 37 -223 37q-149 0 -235.5 -71.5t-86.5 -174.5 q0 -51 27.5 -91t71 -66.5t96.5 -51t106 -52t96.5 -60t71 -84t27.5 -117.5q0 -158 -114 -271t-306 -141l-53 -276h-99l52 272q-149 3 -248 33z" />
<glyph unicode="%" horiz-adv-x="1490" d="M113 25l1261 1394l74 -65l-1262 -1393zM199 983q0 94 30.5 174.5t81 132.5t114 81.5t130.5 29.5q114 0 171.5 -56t57.5 -157q0 -95 -30.5 -175.5t-81 -133t-114 -82t-130.5 -29.5q-114 0 -171.5 56.5t-57.5 158.5zM315 999q0 -69 29.5 -103t95.5 -34q94 0 161 86.5 t67 220.5q0 69 -29.5 102.5t-95.5 33.5q-94 0 -161 -86t-67 -220zM782 197q0 95 31 175t81.5 132t114 81t130.5 29q115 0 173 -55.5t58 -157.5q0 -94 -31 -174t-81.5 -132.5t-113.5 -81.5t-130 -29q-116 0 -174 56t-58 157zM899 215q0 -69 30.5 -103t96.5 -34q93 0 160 86 t67 221q0 67 -30.5 101t-96.5 34q-94 0 -160.5 -85.5t-66.5 -219.5z" />
<glyph unicode="&#x26;" horiz-adv-x="1593" d="M94 303q0 73 23 140.5t57 119t89.5 105.5t104 91.5t117.5 84.5q-129 205 -129 317q0 143 104 243.5t267 100.5q135 0 201.5 -62t66.5 -163q0 -47 -12 -90.5t-39 -84.5t-53.5 -72.5t-73.5 -71t-79.5 -64.5t-90.5 -66q151 -216 412 -477q89 93 156.5 235.5t89.5 311.5h131 q-29 -189 -106 -348.5t-191 -276.5q144 -138 247 -217l-92 -92q-122 99 -250 223q-125 -102 -276 -154t-301 -52q-95 0 -168.5 26t-117 71.5t-65.5 101.5t-22 120zM229 334q0 -103 66.5 -172.5t200.5 -69.5q117 0 238.5 43t230.5 133q-256 260 -422 490q-57 -40 -96.5 -71 t-84 -74t-71 -83t-44.5 -91t-18 -105zM485 1180q0 -89 105 -262q56 39 86 61t72.5 59t63 67t36.5 70.5t16 84.5q0 66 -38 103.5t-113 37.5q-105 0 -166.5 -62.5t-61.5 -158.5z" />
<glyph unicode="'" horiz-adv-x="372" d="M236 991l57 436h141l-108 -436h-90z" />
<glyph unicode="(" horiz-adv-x="604" d="M145 266q0 342 138 687t381 640l84 -51q-204 -252 -341 -593.5t-137 -669.5q0 -385 113 -650l-100 -49q-138 332 -138 686z" />
<glyph unicode=")" horiz-adv-x="604" d="M-98 -369q203 252 340 595t137 671q0 380 -115 647l101 49q137 -319 137 -684q0 -343 -137.5 -687.5t-378.5 -641.5z" />
<glyph unicode="*" horiz-adv-x="735" d="M203 1108l225 94l-188 111l59 82l170 -135l33 239l102 -14l-61 -221l202 125l43 -91l-227 -96l189 -108l-62 -86l-172 137l-31 -240l-102 17l61 219l-198 -127z" />
<glyph unicode="+" d="M98 555l21 109h409l82 430h123l-84 -430h414l-19 -109h-413l-84 -432h-121l82 432h-410z" />
<glyph unicode="," horiz-adv-x="417" d="M-90 -227q200 169 141 282q-22 43 1.5 84t72.5 41q60 0 83 -56q31 -76 -33 -187q-66 -114 -216 -224z" />
<glyph unicode="-" horiz-adv-x="655" d="M109 549l20 106h459l-23 -106h-456z" />
<glyph unicode="." horiz-adv-x="417" d="M31 78q0 44 29 74t71 30q39 0 66.5 -28.5t27.5 -65.5q0 -44 -28.5 -74t-71.5 -30q-39 0 -66.5 28.5t-27.5 65.5z" />
<glyph unicode="/" horiz-adv-x="843" d="M-137 -330l1061 1880h123l-1061 -1880h-123z" />
<glyph unicode="0" horiz-adv-x="1169" d="M121 397q0 130 22.5 265t73.5 268t123.5 236.5t182.5 168t241 64.5q178 0 267 -106t89 -308q0 -135 -24 -272.5t-76.5 -269t-126.5 -233.5t-182 -164t-234 -62q-356 0 -356 413zM258 397q0 -142 61 -223.5t175 -81.5q96 0 178.5 57t138.5 149t95.5 209.5t58 237.5 t18.5 234q0 153 -58 233t-173 80q-107 0 -194 -63t-141.5 -160t-91.5 -220.5t-52 -236.5t-15 -215z" />
<glyph unicode="1" horiz-adv-x="696" d="M207 1143v123l340 116h110l-264 -1382h-131l240 1253z" />
<glyph unicode="2" horiz-adv-x="1007" d="M39 0l20 104l420 426q122 121 191 206.5t106 171t37 175.5q0 95 -56 151t-159 56q-144 0 -293 -88v119q156 78 318 78q157 0 243 -80t86 -219q0 -84 -22.5 -159t-70.5 -148t-100.5 -133t-135.5 -142l-396 -399l2 -2q106 4 600 4l-24 -121h-766z" />
<glyph unicode="3" horiz-adv-x="1003" d="M45 10l39 121q86 -33 195 -33q187 0 308.5 101t121.5 256q0 96 -88.5 157.5t-264.5 61.5q-52 0 -114 -6l22 106q244 -1 380 96t136 246q0 78 -51 127t-154 49q-122 0 -253 -67l2 118q144 56 278 56q74 0 131.5 -16.5t91.5 -42t55.5 -61t29.5 -69t8 -69.5 q0 -130 -84 -238.5t-228 -159.5v-2q119 -31 179.5 -105t60.5 -169q0 -130 -76.5 -240.5t-210.5 -175.5t-295 -65q-125 0 -219 24z" />
<glyph unicode="4" horiz-adv-x="1077" d="M10 336l15 113l753 933h180l-178 -925h244l-25 -121h-239l-64 -336h-127l66 336h-625zM160 449q141 6 495 6l156 800l-2 -4z" />
<glyph unicode="5" horiz-adv-x="931" d="M39 12l37 119q108 -33 227 -33q123 0 217 53.5t141.5 140.5t47.5 193q0 61 -24 106t-79 77.5t-152 44.5t-235 2l129 667h594l-24 -125h-472l-84 -428q484 0 484 -325q0 -144 -73 -263t-203 -188t-289 -69q-130 0 -242 28z" />
<glyph unicode="6" horiz-adv-x="1153" d="M141 360q0 61 10.5 139.5t38.5 180t69.5 199t110 193t154 167.5t207.5 116t264 44q59 0 95 -4l-23 -117q-44 8 -111 8q-431 0 -610 -514l-29 -84l-2 -4q65 86 163 133t218 47q88 0 156.5 -29t108 -77t59.5 -103.5t20 -115.5q0 -109 -43 -211t-116.5 -177.5t-178 -121 t-219.5 -45.5q-173 0 -257.5 98t-84.5 278zM272 354q0 -36 7.5 -71.5t25 -71t43 -62.5t65.5 -44t89 -17q113 0 206.5 59t146 156.5t52.5 210.5q0 107 -59.5 174.5t-175.5 67.5q-115 0 -208 -58t-142.5 -149.5t-49.5 -194.5z" />
<glyph unicode="7" horiz-adv-x="907" d="M172 0q137 328 331 684t345 576q-64 -5 -649 -5l24 127h789l-23 -112q-184 -277 -370.5 -629t-299.5 -641h-147z" />
<glyph unicode="8" horiz-adv-x="1097" d="M82 260q0 135 96.5 243t292.5 210q-117 80 -167 156t-50 165q0 163 130 267t327 104q161 0 250.5 -77t89.5 -200q0 -71 -26.5 -130.5t-91 -114t-101 -79t-126.5 -77.5q-11 -7 -16 -10q121 -83 179.5 -165.5t58.5 -189.5q0 -108 -68.5 -196t-180.5 -136t-243 -48 q-176 0 -265 71.5t-89 206.5zM219 266q0 -79 62.5 -127.5t175.5 -48.5q134 0 232.5 75t98.5 181q0 84 -48.5 153.5t-174.5 153.5q-177 -94 -261.5 -184t-84.5 -203zM391 1044q0 -39 15.5 -75t46.5 -69.5t63 -59.5t80 -60q164 90 241.5 165.5t77.5 170.5q0 85 -60 136 t-161 51q-135 0 -219 -75t-84 -184z" />
<glyph unicode="9" horiz-adv-x="1169" d="M88 -6l27 125q74 -21 168 -21q85 0 160.5 21t133.5 59t106 84.5t84.5 103t61.5 109.5t43 109q27 76 46 110v4q-69 -89 -169.5 -136.5t-216.5 -47.5q-85 0 -151.5 26.5t-106 71.5t-59.5 101.5t-20 120.5q0 150 67.5 279t192.5 208.5t280 79.5q165 0 263 -94.5t98 -259.5 q0 -72 -10.5 -156.5t-37.5 -189t-68 -203t-108 -193t-151 -165t-203 -113.5t-258 -43q-100 0 -172 10zM332 860q0 -106 56.5 -167.5t166.5 -61.5q170 0 285.5 112t115.5 301q0 113 -65.5 181.5t-175.5 68.5q-104 0 -193.5 -64.5t-139.5 -164.5t-50 -205z" />
<glyph unicode=":" horiz-adv-x="569" d="M135 82q0 41 28.5 70.5t69.5 29.5q40 0 68.5 -29t28.5 -69q0 -41 -29 -70.5t-70 -29.5t-68.5 29t-27.5 69zM252 696q0 41 28.5 70t69.5 29t68.5 -28.5t27.5 -68.5q0 -42 -28 -71t-68 -29q-41 0 -69.5 28.5t-28.5 69.5z" />
<glyph unicode=";" horiz-adv-x="569" d="M20 -227q201 170 142 282q-24 43 -1 84t72 41q61 0 84 -56q32 -75 -32 -187q-65 -114 -215 -224zM252 696q0 41 28.5 70t69.5 29t68.5 -28.5t27.5 -68.5q0 -42 -28 -71t-68 -29q-41 0 -69.5 28.5t-28.5 69.5z" />
<glyph unicode="&#x3c;" d="M180 633l738 553l73 -88l-645 -475l475 -482l-90 -82z" />
<glyph unicode="=" d="M94 393l21 111h891l-21 -111h-891zM156 715l20 108h891l-20 -108h-891z" />
<glyph unicode="&#x3e;" d="M178 145l645 478l-475 481l90 82l551 -574l-737 -553z" />
<glyph unicode="?" horiz-adv-x="884" d="M207 80q0 41 28 69.5t68 28.5q41 0 68.5 -28t27.5 -68q0 -41 -28.5 -69.5t-69.5 -28.5q-40 0 -67 28t-27 68zM283 315q-12 90 5.5 166.5t55 131.5t85 102.5t97.5 89t92 81t68.5 88.5t26.5 103q0 97 -93.5 162.5t-271.5 85.5l39 119q231 -24 349 -122.5t118 -236.5 q0 -67 -27.5 -125t-70.5 -101t-94.5 -85t-100.5 -86.5t-87.5 -95t-57 -121.5t-6.5 -156h-127z" />
<glyph unicode="@" horiz-adv-x="1974" d="M195 477q0 138 36 270t99.5 244t154 206.5t197 160t230.5 102.5t253 37q166 0 295 -47t207.5 -129t118 -188t39.5 -230q0 -181 -63 -327.5t-174 -229t-247 -82.5q-66 0 -112.5 21.5t-66.5 56t-27 77.5t6 87h-4q-38 -96 -126 -169t-190 -73q-98 0 -147 57.5t-49 157.5 q0 75 15 152.5t53 159t93.5 144.5t144.5 103.5t199 40.5q129 0 254 -22l-127 -434q-72 -254 101 -254q102 0 182.5 71t124 189.5t43.5 259.5q0 83 -18 156t-60 138t-105 111.5t-158 73.5t-214 27q-167 0 -322 -72t-269 -193.5t-182.5 -290t-68.5 -352.5q0 -262 152.5 -415.5 t439.5 -153.5q168 0 336 49l6 -100q-170 -51 -360 -51q-325 0 -507.5 176.5t-182.5 484.5zM750 502q0 -131 98 -131q92 0 186 124t164 353l35 115q-61 14 -121 14q-106 0 -191 -72.5t-128 -180t-43 -222.5z" />
<glyph unicode="A" horiz-adv-x="1220" d="M-61 0l768 1382h145l240 -1382h-142l-55 354h-625l-192 -354h-139zM326 459h551l-99 600q-22 171 -24 186h-2q-68 -133 -95 -182z" />
<glyph unicode="B" horiz-adv-x="1130" d="M98 0l262 1382q37 0 145.5 3.5t180.5 3.5q107 0 184.5 -21t121 -59t63.5 -84.5t20 -102.5q0 -148 -90.5 -253t-218.5 -146v-2q111 -17 173 -85.5t62 -168.5q0 -95 -38 -179.5t-110 -150.5t-187 -104.5t-258 -38.5q-4 0 -310 6zM248 113q80 -13 182 -13q206 0 320 101 t114 250q0 108 -84.5 160.5t-269.5 52.5q-123 0 -158 -2zM371 766q45 -2 143 -2q117 0 203 29.5t133 80.5t68.5 108t21.5 122q0 180 -270 180q-12 0 -201 -6z" />
<glyph unicode="C" horiz-adv-x="1196" d="M119 455q0 138 26.5 268.5t88 254t152 215.5t227.5 148t305 56q162 0 319 -45l-37 -119q-157 53 -309 53q-128 0 -235 -46.5t-180 -125.5t-123.5 -183.5t-73.5 -219t-23 -234.5q0 -82 22 -149t68 -119.5t124 -81.5t183 -29q83 0 182.5 21.5t172.5 54.5l10 -111 q-85 -36 -192 -56.5t-205 -20.5q-112 0 -201 28t-144.5 73t-91.5 107.5t-50.5 126.5t-14.5 134z" />
<glyph unicode="D" horiz-adv-x="1376" d="M98 0l262 1382q50 0 179.5 3.5t193.5 3.5q132 0 235 -25.5t170 -70t110.5 -109t62 -138t18.5 -161.5q0 -138 -33.5 -266t-106 -242.5t-177 -199t-256 -134t-334.5 -49.5q-72 0 -176 4q-81 3 -125 2h-23zM248 117q111 -15 192 -15q156 0 284 44t213.5 117.5t144 173.5 t84.5 208.5t26 224.5q0 73 -14 132.5t-48 112.5t-88 89t-137 57t-192 21q-67 0 -244 -6z" />
<glyph unicode="E" horiz-adv-x="1034" d="M98 0l262 1382h691l-21 -106h-561l-98 -510h514l-19 -104h-514l-106 -553h561l-19 -109h-690z" />
<glyph unicode="F" horiz-adv-x="948" d="M98 0l262 1382h678l-20 -106h-549l-98 -514h510l-21 -105h-510l-123 -657h-129z" />
<glyph unicode="G" horiz-adv-x="1378" d="M115 508q0 119 30 239.5t97 238.5t163.5 209t242 147.5t319.5 56.5q191 0 362 -58l-39 -118q-173 67 -344 67q-118 0 -220.5 -33.5t-177 -92t-132.5 -134t-93 -162.5t-53 -174.5t-18 -173.5q0 -201 108 -313.5t330 -112.5q157 0 309 47l105 549h129l-121 -635 q-210 -71 -444 -71q-274 0 -413.5 136t-139.5 388z" />
<glyph unicode="H" horiz-adv-x="1417" d="M98 0l262 1382h129l-116 -610h774l117 610h129l-263 -1382h-129l127 664h-774l-127 -664h-129z" />
<glyph unicode="I" horiz-adv-x="514" d="M98 0l262 1382h129l-262 -1382h-129z" />
<glyph unicode="J" horiz-adv-x="690" d="M-92 4l20 121q83 -27 158 -27q101 0 166.5 60t93.5 207l193 1017h127l-199 -1040q-35 -183 -131 -268.5t-268 -85.5q-86 0 -160 16z" />
<glyph unicode="K" horiz-adv-x="1155" d="M98 0l262 1382h129l-127 -665l732 665h172l-760 -671l506 -711h-168l-484 705l-133 -705h-129z" />
<glyph unicode="L" horiz-adv-x="854" d="M98 0l262 1382h129l-241 -1273h516l-19 -109h-647z" />
<glyph unicode="M" horiz-adv-x="1789" d="M23 0l444 1382h170l156 -985q19 -107 22 -221h2q69 155 105 221l534 985h193l-72 -1382h-133l45 899q16 264 29 365h-7q-24 -59 -112 -230l-555 -1034h-119l-156 975q-35 259 -37 289h-2q-34 -136 -106 -377l-268 -887h-133z" />
<glyph unicode="N" horiz-adv-x="1386" d="M98 0l262 1382h166l414 -962q45 -112 82 -227q32 228 145 833l68 356h127l-262 -1382h-129l-418 977q-64 143 -104 276q-61 -402 -150 -858l-74 -395h-127z" />
<glyph unicode="O" horiz-adv-x="1417" d="M113 485q0 181 56 347t155 292t245 200.5t316 74.5q241 0 366 -136t125 -366q0 -145 -35 -281t-103 -250t-160.5 -200t-214 -134t-257.5 -48q-243 0 -368 135.5t-125 365.5zM250 506q0 -189 95 -300.5t286 -111.5q170 0 310 103t219 282.5t79 397.5q0 189 -95 300 t-286 111q-127 0 -240 -60.5t-193.5 -164.5t-127.5 -249t-47 -308z" />
<glyph unicode="P" horiz-adv-x="1099" d="M98 0l262 1382q169 7 316 7q217 0 328.5 -95t111.5 -250q0 -110 -43.5 -209.5t-122 -175.5t-196 -120.5t-256.5 -44.5q-41 0 -85 2t-67 4l-24 2l-95 -502h-129zM342 614q96 -12 178 -12q117 0 208.5 39t145 102.5t80.5 137t27 149.5q0 112 -79.5 182t-250.5 70l-184 -4z " />
<glyph unicode="Q" horiz-adv-x="1417" d="M113 483q0 145 35 282t103 251.5t161 200.5t215 134t258 48q241 0 366 -136t125 -366q0 -305 -142 -539t-351 -307q42 -2 91 -17.5t88.5 -30.5t108.5 -24q33 -4 68 -4q39 0 82 5l-27 -117q-58 -6 -103 -6q-32 0 -57 3q-60 8 -120 28t-104.5 41.5t-114.5 38t-150 16.5h-39 q-243 0 -368 135.5t-125 363.5zM250 506q0 -189 95 -300.5t286 -111.5q170 0 310 103t219 282.5t79 397.5q0 189 -95 300t-286 111q-127 0 -240 -60.5t-193.5 -164.5t-127.5 -249t-47 -308z" />
<glyph unicode="R" horiz-adv-x="1128" d="M98 0l262 1380q160 9 310 9q191 0 298 -75.5t107 -215.5q0 -81 -28.5 -157.5t-84 -142t-147.5 -110t-209 -55.5q41 -66 86 -144l273 -489h-160l-342 627h-117l-119 -627h-129zM365 729q79 -2 167 -2t159 21.5t116.5 56t76 81t43.5 93.5t13 96q0 98 -72.5 153.5 t-220.5 55.5l-180 -6z" />
<glyph unicode="S" horiz-adv-x="1011" d="M31 23l39 127q143 -54 299 -54q174 0 271 84.5t97 210.5q0 59 -28.5 107t-74 82t-100.5 65.5t-110 66t-100.5 74.5t-74 99.5t-28.5 132.5q0 75 32.5 143t93 121.5t156 85t212.5 31.5q124 0 256 -27l-35 -119q-113 37 -242 37q-167 0 -254.5 -76.5t-87.5 -183.5 q0 -57 28.5 -103t74 -78.5t100.5 -63.5t110 -65.5t100.5 -75t74 -102.5t28.5 -139q0 -82 -34 -156.5t-97.5 -133.5t-165.5 -94t-227 -35q-177 0 -313 39z" />
<glyph unicode="T" horiz-adv-x="1044" d="M184 1274l23 108h967l-23 -108h-418l-241 -1274h-130l242 1274h-420z" />
<glyph unicode="U" horiz-adv-x="1406" d="M170 310q2 72 14 153l176 919h129l-176 -917q-13 -67 -13 -122q0 -101 44 -161q68 -92 272 -92q201 0 316.5 98.5t159.5 335.5l163 858h127l-168 -876q-51 -265 -203.5 -393.5t-412.5 -128.5q-116 0 -200.5 24t-131.5 68q-46 43 -72 103q-24 57 -25 124q1 3 1 7z" />
<glyph unicode="V" horiz-adv-x="1224" d="M201 1382h141l154 -948q18 -110 41 -299h2q55 123 159 309l514 938h144l-770 -1382h-144z" />
<glyph unicode="W" horiz-adv-x="1914" d="M250 1382h137l80 -997q8 -131 8 -264h2q38 106 105 254l475 1007h131l102 -1026q10 -126 13 -235h2q54 144 81 205l484 1056h129l-637 -1382h-162l-100 1018q-9 82 -9 149q0 18 1 35h-5q-9 -23 -23.5 -60.5t-26.5 -67.5t-25 -56l-480 -1018h-167z" />
<glyph unicode="X" horiz-adv-x="1161" d="M-57 0l596 719l-301 663h145l246 -561l454 561h154l-551 -661l328 -721h-152l-266 616l-498 -616h-155z" />
<glyph unicode="Y" horiz-adv-x="1042" d="M178 1382h139l166 -495q31 -89 66 -230h2q91 143 156 232l350 493h143l-608 -835l-103 -547h-129l103 547z" />
<glyph unicode="Z" horiz-adv-x="1083" d="M-2 0l18 92l807 985q38 50 166 193q-156 -4 -321 -4h-406l23 116h872l-18 -94l-850 -1034q-44 -56 -117 -139q47 4 369 4h381l-23 -119h-901z" />
<glyph unicode="[" horiz-adv-x="636" d="M23 -399l372 1970h365l-17 -96h-247l-338 -1774h248l-21 -100h-362z" />
<glyph unicode="\" horiz-adv-x="833" d="M231 1550h113l344 -1880h-113z" />
<glyph unicode="]" horiz-adv-x="636" d="M-92 -399l18 100h248l338 1774h-248l17 96h366l-375 -1970h-364z" />
<glyph unicode="^" d="M193 762l458 620h111l237 -618l-104 -53l-209 569l-410 -569z" />
<glyph unicode="_" d="M-193 -514l17 100h1124l-16 -100h-1125z" />
<glyph unicode="`" horiz-adv-x="702" d="M371 1446l98 76l182 -281l-80 -61z" />
<glyph unicode="a" horiz-adv-x="1095" d="M80 285q0 94 16 183.5t48 173.5t84 154t120 122.5t160.5 82t200.5 29.5q155 0 290 -29q-128 -662 -190 -1001h-131q23 125 133 477l-4 2q-25 -60 -51.5 -114t-75.5 -128.5t-101 -127t-126.5 -90t-153.5 -37.5q-219 0 -219 303zM211 307q0 -217 121 -217q81 0 167 75.5 t153 188t116.5 235.5t69.5 226l18 92q-90 23 -168 23q-101 0 -183.5 -38t-136 -100t-90 -144.5t-52 -167.5t-15.5 -173z" />
<glyph unicode="b" horiz-adv-x="1095" d="M100 16l281 1479h125l-100 -532q-29 -138 -115 -416l4 -2q41 104 92.5 190.5t114.5 155t139 107t158 38.5q221 0 221 -303q0 -114 -22.5 -219.5t-72 -202t-122 -168t-179 -113.5t-235.5 -42q-145 0 -289 28zM244 111q81 -23 168 -23q101 0 183 38t135.5 100t90 144.5 t52.5 167.5t16 173q0 217 -123 217q-81 0 -166.5 -75t-152 -187.5t-116 -234t-69.5 -222.5z" />
<glyph unicode="c" horiz-adv-x="856" d="M76 311q0 116 25 223.5t74 197.5t117 157.5t159.5 105t195.5 37.5q112 0 234 -37l-33 -110q-110 45 -213 45q-82 0 -152.5 -36.5t-119 -96.5t-83 -137t-51 -158t-16.5 -160q0 -246 240 -246q124 0 247 56l13 -107q-145 -59 -293 -59q-94 0 -162.5 25t-107.5 70.5 t-56.5 102t-17.5 127.5z" />
<glyph unicode="d" horiz-adv-x="1095" d="M80 285q0 94 16 183.5t48 173.5t84 154t120 122.5t160.5 82t200.5 29.5q83 0 165 -12l91 477h129l-215 -1126l-70 -369h-129q20 120 131 477l-4 2q-25 -60 -51.5 -114t-75.5 -128.5t-101 -127t-126.5 -90t-153.5 -37.5q-219 0 -219 303zM211 307q0 -217 121 -217 q81 0 167 75.5t153 188t116.5 235.5t69.5 226l18 92q-90 23 -168 23q-101 0 -183.5 -38t-136 -100t-90 -144.5t-52 -167.5t-15.5 -173z" />
<glyph unicode="e" horiz-adv-x="954" d="M76 303q0 113 22.5 219.5t69 199t110.5 162.5t153 110t192 40q136 0 206 -61.5t70 -157.5q0 -154 -166.5 -242.5t-507.5 -101.5q-14 -61 -14 -145q0 -138 53.5 -186t190.5 -48q140 0 276 58l10 -105q-147 -61 -335 -61q-167 0 -248.5 73.5t-81.5 245.5zM246 580 q272 10 396 65t124 156q0 63 -44.5 97t-117.5 34q-131 0 -223.5 -97t-134.5 -255z" />
<glyph unicode="f" horiz-adv-x="690" d="M-365 -512l31 111q97 -19 156 -19q125 0 196.5 76.5t108.5 269.5l188 989h-229l18 103h230l12 65q42 217 152.5 319.5t292.5 102.5q73 0 165 -18l-30 -107q-81 19 -156 19q-122 0 -194.5 -77.5t-104.5 -248.5l-10 -55h305l-18 -103h-308l-186 -981 q-46 -249 -154.5 -355.5t-298.5 -106.5q-84 0 -166 16z" />
<glyph unicode="g" horiz-adv-x="1095" d="M-20 -496l30 121q135 -41 273 -41q158 0 254 81.5t133 271.5q49 255 137 530l-4 2q-23 -56 -49 -109t-74 -126t-100.5 -125t-127 -89.5t-153.5 -37.5q-219 0 -219 303q0 113 22.5 219t72 202.5t121.5 168t178.5 113.5t234.5 42q138 0 290 -29l-215 -1116 q-15 -87 -51 -158t-97 -130t-159.5 -92t-226.5 -33q-146 0 -270 32zM211 307q0 -217 121 -217q81 0 167 75.5t153 188t116.5 235.5t69.5 226l18 92q-90 23 -168 23q-101 0 -183.5 -38t-136 -100t-90 -144.5t-52 -167.5t-15.5 -173z" />
<glyph unicode="h" horiz-adv-x="1161" d="M98 0l283 1495h125l-96 -512q-32 -165 -117 -426l4 -2q39 95 88.5 178t112 152.5t140 110t159.5 40.5q135 0 187 -91q33 -57 34 -145q0 -52 -12 -114l-134 -686h-124l122 659q15 72 15 125q-1 48 -13 78q-26 66 -108 66q-79 0 -164.5 -75t-152.5 -187t-116.5 -234.5 t-68.5 -224.5l-39 -207h-125z" />
<glyph unicode="i" horiz-adv-x="512" d="M98 0l193 1018h125l-193 -1018h-125zM328 1343q0 41 27.5 69t66.5 28q36 0 61 -25t25 -61q0 -41 -27 -70t-65 -29t-63 26t-25 62z" />
<glyph unicode="j" horiz-adv-x="528" d="M-299 -514l25 117q64 -23 137 -23q101 0 147.5 60.5t77.5 232.5l219 1145h127l-225 -1174q-38 -193 -121.5 -282.5t-239.5 -89.5q-86 0 -147 14zM344 1343q0 41 27.5 69t66.5 28q38 0 63 -25t25 -61q0 -41 -28 -70t-66 -29t-63 26t-25 62z" />
<glyph unicode="k" horiz-adv-x="948" d="M96 0l285 1495h125l-174 -922l508 488l86 -82l-459 -414l336 -565h-158l-315 559l-109 -559h-125z" />
<glyph unicode="l" horiz-adv-x="512" d="M98 0l283 1495h125l-283 -1495h-125z" />
<glyph unicode="m" horiz-adv-x="1777" d="M96 0l103 530q41 214 90 488h131q-29 -148 -129 -461l4 -2q37 94 86 177t110.5 153t138 110.5t156.5 40.5q99 0 150 -52t51 -146q0 -56 -13.5 -116.5t-47.5 -166.5h4q37 94 86 177t110.5 153t138 110.5t156.5 40.5q129 0 181 -92q32 -56 33 -141q0 -53 -13 -117 l-131 -686h-127l127 659q13 68 13 119q0 152 -115 152q-93 0 -198 -108.5t-185 -275.5t-111 -339l-39 -207h-127l127 659q13 71 13 123q0 50 -12 82q-25 66 -103 66q-92 0 -196.5 -108t-185.5 -276t-112 -339l-39 -207h-125z" />
<glyph unicode="n" horiz-adv-x="1159" d="M96 0l103 530q41 214 90 488h131q-28 -142 -129 -461l4 -2q39 95 88.5 178t112 152.5t140 110t159.5 40.5q135 0 187 -91q33 -57 33 -145q0 -52 -11 -114l-132 -686h-127l125 659q14 71 14 123q0 48 -12 80q-26 66 -110 66q-79 0 -164.5 -75t-152.5 -187t-116.5 -234.5 t-68.5 -224.5l-39 -207h-125z" />
<glyph unicode="o" horiz-adv-x="1083" d="M76 342q0 101 22.5 199.5t69.5 187.5t113.5 157t162 108t207.5 40q175 0 267 -97t92 -261q0 -101 -22.5 -199.5t-70 -187.5t-114 -157t-162 -108t-207.5 -40q-175 0 -266.5 97t-91.5 261zM209 358q0 -119 61.5 -193.5t186.5 -74.5q84 0 154.5 34.5t118.5 91.5t82 131.5 t49.5 153.5t15.5 158q0 119 -61.5 195t-186.5 76q-84 0 -154.5 -35t-118.5 -92t-82 -132t-49.5 -154.5t-15.5 -158.5z" />
<glyph unicode="p" horiz-adv-x="1093" d="M-2 -514l201 1042q52 275 90 490h131q-22 -119 -129 -471l4 -2q41 104 92.5 190.5t114.5 155t139 107t158 38.5q221 0 221 -303q0 -114 -22.5 -219.5t-72 -202t-122 -168t-179 -113.5t-235.5 -42q-75 0 -168 14l-96 -516h-127zM246 119q89 -29 168 -29q99 0 181 38 t135.5 99.5t90 143.5t52.5 167t16 173q0 217 -123 217q-65 0 -134 -49.5t-126.5 -128.5t-108 -175.5t-85 -191t-50.5 -174.5z" />
<glyph unicode="q" horiz-adv-x="1095" d="M80 285q0 94 16 183.5t48 173.5t84 154t120 122.5t160.5 82t200.5 29.5q155 0 290 -29l-288 -1515h-127l96 504q34 180 131 487l-4 2q-25 -60 -51.5 -114t-75.5 -128.5t-101 -127t-126.5 -90t-153.5 -37.5q-219 0 -219 303zM211 307q0 -217 123 -217q80 0 165.5 75.5 t152.5 188t116.5 235.5t69.5 226l18 92q-90 23 -168 23q-101 0 -183.5 -38t-136 -100t-90 -144.5t-52 -167.5t-15.5 -173z" />
<glyph unicode="r" horiz-adv-x="712" d="M96 0l103 530q41 214 90 488h127q-22 -132 -117 -424l4 -2q33 74 62 130t64 112.5t71 95t77 66.5t88 38q23 5 47 5q25 0 52 -5l-25 -125q-17 4 -34 4q-45 1 -93 -29q-66 -42 -119.5 -118.5t-101.5 -172t-79.5 -188t-45.5 -167.5l-45 -238h-125z" />
<glyph unicode="s" horiz-adv-x="806" d="M23 6l30 121q107 -35 213 -35q120 0 188 49t68 140q0 38 -19.5 71.5t-51.5 59.5t-70 52t-76 54t-70 59.5t-51.5 75.5t-19.5 95q0 119 103 202.5t276 83.5q80 0 186 -16l-24 -111q-105 25 -177 25q-111 0 -172 -47.5t-61 -126.5q0 -38 19.5 -71.5t51.5 -59.5t70 -52 t76 -54t70 -59t51.5 -74.5t19.5 -94.5q0 -62 -25 -116.5t-74 -98t-130 -69t-184 -25.5q-118 0 -217 22z" />
<glyph unicode="t" horiz-adv-x="741" d="M80 915l18 103h230l65 344l133 33l-71 -377h303l-17 -103h-307l-112 -591q-13 -69 -13 -115q0 -40 10 -63q22 -48 107 -48q79 0 152 17l-5 -111q-99 -18 -176 -18q-149 0 -195 73q-26 42 -26 117q0 54 14 125l117 614h-227z" />
<glyph unicode="u" horiz-adv-x="1159" d="M158 332l133 686h125l-125 -660q-14 -71 -15 -123q0 -49 14 -80q26 -65 109 -65q79 0 164.5 75t152.5 187t116.5 234.5t68.5 224.5l39 207h125l-102 -531q-59 -310 -91 -487h-129q22 129 127 461l-4 2q-39 -96 -88.5 -178.5t-112 -152t-139.5 -110t-159 -40.5 q-135 0 -187 91q-33 57 -34 145q0 52 12 114z" />
<glyph unicode="v" horiz-adv-x="946" d="M123 1018h139l115 -715q15 -100 18 -174h2l500 930l119 -47l-570 -1012h-141z" />
<glyph unicode="w" horiz-adv-x="1587" d="M139 1018h140l61 -660q18 -200 20 -235h2q34 80 111 237l332 658h156l83 -658q18 -170 23 -239h2q18 39 54.5 115t58.5 122l342 701l118 -45l-520 -1014h-149l-103 707q-13 101 -16 186h-2q-23 -50 -68 -142.5t-55 -113.5l-315 -637h-160z" />
<glyph unicode="x" horiz-adv-x="1026" d="M-31 33l473 483l-272 502h156l211 -416l424 459l88 -74l-455 -475l283 -512h-164l-215 430l-437 -477z" />
<glyph unicode="y" horiz-adv-x="931" d="M-244 -524l21 116q38 -8 73 -8q117 0 236 119q91 90 128.5 188t37.5 248q0 159 -36.5 393.5t-98.5 485.5h145q48 -221 80.5 -444.5t32.5 -337.5q0 -128 -23 -222h2q58 101 103 187q174 316 403 858l121 -41q-431 -1010 -780 -1362q-97 -96 -189 -140t-196 -44z" />
<glyph unicode="z" horiz-adv-x="874" d="M4 0l16 90l660 817q-144 -4 -283 -4h-213l23 115h645l-14 -88l-658 -815q126 4 289 4h223l-22 -119h-666z" />
<glyph unicode="{" horiz-adv-x="655" d="M80 600l22 107q131 7 185.5 53.5t77.5 167.5l53 284q70 359 344 359h35l-17 -96q-110 0 -162.5 -56t-78.5 -198l-56 -283q-52 -264 -243 -287v-4q89 -13 122.5 -85.5t10.5 -192.5l-80 -416q-26 -142 4 -197t137 -55l-18 -100h-33q-280 0 -207 360l82 416 q23 118 -16.5 166.5t-161.5 56.5z" />
<glyph unicode="|" horiz-adv-x="567" d="M41 -514l389 2048h100l-389 -2048h-100z" />
<glyph unicode="}" horiz-adv-x="657" d="M-92 -397l18 100q110 0 162 55t78 197l78 414q50 262 245 286v4q-88 13 -122 86t-11 193l56 285q28 141 -3.5 197.5t-138.5 56.5l19 96h26q77 0 128.5 -28.5t72.5 -77.5t25 -114.5t-13 -138.5l-57 -286q-23 -118 16 -165.5t160 -55.5l-20 -107q-131 -7 -185 -53.5 t-77 -169.5l-80 -414q-35 -186 -113.5 -273t-228.5 -87h-35z" />
<glyph unicode="~" d="M215 913q6 130 79.5 209.5t188.5 79.5q52 0 94 -17.5t66.5 -43t50 -56t45.5 -56t51.5 -43t69.5 -17.5q70 0 111 54.5t49 139.5h96q-6 -131 -79.5 -211t-188.5 -80q-45 0 -82 13t-62 33.5t-46 45.5t-40 50t-39 45.5t-47.5 33.5t-60.5 13q-70 0 -111 -54.5t-49 -138.5h-96z " />
<glyph unicode="&#xa1;" horiz-adv-x="638" d="M49 -414l236 1116h102l-188 -1116h-150zM285 936q0 41 27.5 69.5t68.5 28.5t67.5 -28t26.5 -68q0 -41 -27.5 -69.5t-68.5 -28.5t-67.5 28t-26.5 68z" />
<glyph unicode="&#xa2;" horiz-adv-x="917" d="M113 590q0 246 143 413t369 195l45 234h104l-43 -230q125 -3 221 -47l-32 -117q-98 58 -234 58q-184 0 -309 -132.5t-125 -347.5q0 -59 15.5 -108t48 -89t89 -62.5t132.5 -22.5q140 0 268 69l-14 -116q-116 -51 -246 -62l-56 -278h-104l55 278q-155 12 -241 108t-86 257z " />
<glyph unicode="&#xa3;" horiz-adv-x="937" d="M-10 0l18 92q121 89 181 159.5t92 170t45 266.5h-232l21 100h213q1 72 5.5 130.5t17 123.5t32.5 115t53.5 97t78.5 77.5t108.5 49t142.5 18.5q122 0 205 -29l-35 -113q-84 35 -184 35q-58 0 -103 -16t-75.5 -40t-52.5 -66t-33.5 -79.5t-19 -96t-9.5 -100t-4 -106.5h327 l-18 -100h-311q-20 -233 -78 -352.5t-207 -231.5q101 11 199 11h434l-23 -115h-788z" />
<glyph unicode="&#xa4;" d="M92 215l191 188q-47 63 -47 170q0 103 38.5 199.5t120.5 167.5l-127 203l101 65l114 -213q89 45 189 45q115 0 178 -45l201 213l75 -73l-206 -209q34 -53 34 -144q0 -212 -143 -350l139 -223l-100 -68l-127 228q-105 -60 -205 -60q-98 0 -156 33l-188 -201zM360 592 q0 -83 43.5 -132.5t139.5 -49.5q82 0 150 52.5t104.5 132.5t36.5 165q0 82 -45.5 131t-141.5 49q-89 0 -156.5 -53t-99 -131t-31.5 -164z" />
<glyph unicode="&#xa5;" horiz-adv-x="1173" d="M125 219l18 96h342l33 158h-346l18 96h314l-238 813h137l144 -512q33 -117 59 -256h2q61 112 174 279l330 489h141l-559 -813h314l-19 -96h-344l-31 -158h347l-19 -96h-346l-39 -219h-129l39 219h-342z" />
<glyph unicode="&#xa6;" horiz-adv-x="567" d="M41 -514l145 774h101l-146 -774h-100zM285 780l145 754h100l-145 -754h-100z" />
<glyph unicode="&#xa7;" horiz-adv-x="1030" d="M125 -311l25 110q86 -26 145 -26t105.5 22.5t72.5 57.5t39.5 73t13.5 74q0 54 -33.5 116t-80.5 121.5t-94.5 123t-81 141.5t-33.5 155q0 196 217 347q-47 90 -47 161q0 39 12 82.5t40 90t69.5 83.5t106.5 60.5t144 23.5q83 0 144 -18l-27 -111q-70 23 -125 23 q-64 0 -112 -23.5t-72.5 -60t-35.5 -72t-11 -69.5q0 -51 33.5 -111.5t81 -120.5t95.5 -123.5t81.5 -143t33.5 -157.5q0 -199 -217 -344q43 -75 43 -156q0 -144 -107 -248t-267 -104q-88 0 -158 23zM328 674q0 -40 13 -81.5t39.5 -86t50.5 -78t63.5 -86t60.5 -82.5 q77 48 114.5 111.5t37.5 128.5q0 41 -13.5 83t-40 86t-51.5 79t-64 86.5t-61 83.5q-149 -90 -149 -244z" />
<glyph unicode="&#xa8;" horiz-adv-x="925" d="M350 1343q0 41 26 67t64 26q36 0 61 -24t25 -58q0 -41 -26.5 -67.5t-63.5 -26.5q-38 0 -62 24t-24 59zM721 1346q0 39 26.5 64.5t65.5 25.5q36 0 60 -24t24 -58q0 -41 -26.5 -67.5t-63.5 -26.5q-36 0 -61 25t-25 61z" />
<glyph unicode="&#xa9;" horiz-adv-x="1509" d="M104 657q0 196 97.5 359t259 254.5t348.5 91.5q136 0 257.5 -50t208 -136t137 -205t50.5 -252q0 -148 -57.5 -280t-153.5 -225t-225 -147.5t-268 -54.5t-261.5 50.5t-208 137t-135 205.5t-49.5 252zM215 664q0 -112 43 -213.5t116 -175.5t175 -118t215 -44 q157 0 292 77.5t216.5 216.5t81.5 308q0 147 -72.5 272.5t-199.5 200t-277 74.5q-157 0 -292 -77t-216.5 -215t-81.5 -306zM463 569q0 134 49 243t143.5 175t218.5 66q93 0 166 -25l-26 -98q-67 31 -154 31q-61 0 -110.5 -24.5t-80 -63t-51 -88.5t-28.5 -98t-8 -95 q0 -170 163 -170q91 0 179 31l2 -97q-94 -30 -199 -30q-264 0 -264 243z" />
<glyph unicode="&#xaa;" horiz-adv-x="786" d="M137 485l21 101h555l-19 -101h-557zM176 915q0 94 27 178.5t78 151.5t132 106.5t181 39.5q107 0 209 -17q-92 -460 -121 -645h-113q11 64 66 221h-2q-52 -110 -127 -170.5t-166 -60.5q-164 0 -164 196zM289 942q0 -68 20 -97.5t60 -29.5q65 0 127.5 59t106.5 152t65 201 l12 61q-49 12 -109 12q-86 0 -152 -54t-98 -134t-32 -170z" />
<glyph unicode="&#xab;" horiz-adv-x="985" d="M143 606l299 348l86 -61l-252 -293l142 -289l-99 -55zM496 606l313 346l84 -61l-264 -291l155 -289l-98 -53z" />
<glyph unicode="&#xac;" d="M98 555l21 109h885l-82 -441h-111l63 332h-776z" />
<glyph unicode="&#xad;" horiz-adv-x="655" d="M109 549l20 106h459l-23 -106h-456z" />
<glyph unicode="&#xae;" d="M248 1053q0 128 63.5 234.5t166 165t218.5 58.5q172 0 287 -116.5t115 -292.5q0 -124 -63.5 -229.5t-165.5 -164.5t-216 -59q-173 0 -289 117t-116 287zM348 1067q0 -134 89.5 -231t219.5 -97q138 0 241 103.5t103 255.5q0 131 -90 227t-219 96q-139 0 -241.5 -102 t-102.5 -252zM494 846l90 475h135q137 0 137 -98q0 -66 -43.5 -109t-107.5 -53q5 -7 16.5 -31.5t15.5 -32.5l70 -151h-94l-88 209h-13l-39 -209h-79zM625 1112h32q53 0 83 28t30 70q0 45 -61 45h-58z" />
<glyph unicode="&#xaf;" horiz-adv-x="864" d="M342 1288l18 98h482l-19 -98h-481z" />
<glyph unicode="&#xb0;" horiz-adv-x="737" d="M262 1229q0 124 82 199t191 75q105 0 164 -57.5t59 -153.5q0 -123 -82.5 -197.5t-190.5 -74.5q-106 0 -164.5 57t-58.5 152zM373 1239q0 -62 32.5 -96.5t90.5 -34.5q64 0 107.5 49t43.5 127q0 61 -33 96t-92 35q-63 0 -106 -49t-43 -127z" />
<glyph unicode="&#xb1;" d="M-6 0l20 109h942l-18 -109h-944zM119 672l22 108h412l80 418h123l-82 -418h411l-20 -108h-412l-78 -422h-122l77 422h-411z" />
<glyph unicode="&#xb2;" horiz-adv-x="694" d="M131 754l19 94l260 219q204 173 204 313q0 127 -127 127q-94 0 -188 -51l-8 92q107 58 221 58q112 0 170.5 -52.5t58.5 -152.5q0 -182 -227 -375l-201 -168q159 7 369 4l-20 -108h-531z" />
<glyph unicode="&#xb3;" horiz-adv-x="671" d="M137 756l25 104q61 -22 145 -22q108 0 172 51t64 135q0 117 -195 117q-42 0 -88 -6l16 96q149 0 230.5 46.5t81.5 129.5q0 102 -123 102q-85 0 -168 -36v98q90 35 195 35q112 0 166.5 -46.5t54.5 -127.5q0 -82 -51 -145.5t-136 -88.5q64 -12 104 -55.5t40 -102.5 q0 -127 -107 -214t-266 -87q-77 0 -160 17z" />
<glyph unicode="&#xb4;" horiz-adv-x="702" d="M332 1247l280 275l78 -86l-299 -256z" />
<glyph unicode="&#xb5;" horiz-adv-x="1181" d="M35 -514q1 196 21 370t45 280t64 264.5t60 271.5l68 346h125l-111 -586q-35 -188 -9.5 -265t112.5 -77q76 0 160 75t149.5 187t115 235t68.5 224l39 207h125l-119 -631q-26 -133 -26 -217q0 -40 15.5 -56t47.5 -16q22 0 47 4l-2 -106q-44 -8 -80 -8q-74 0 -113.5 33.5 t-39.5 117.5q0 127 75 324h-2q-38 -95 -87.5 -178t-110.5 -152.5t-135 -110t-150 -40.5q-162 0 -182 157q-5 -112 -10 -149q-33 -233 -33 -504h-127z" />
<glyph unicode="&#xb6;" horiz-adv-x="1130" d="M225 862q0 168 102.5 309.5t264.5 190.5q75 20 149 20l-161 -850q-176 -1 -265.5 89.5t-89.5 240.5zM438 -197l19 97h151l281 1482h272l-16 -96h-150l-284 -1483h-273z" />
<glyph unicode="&#xb7;" horiz-adv-x="419" d="M127 604q0 45 31.5 77t74.5 32q41 0 70 -30t29 -71q0 -45 -32 -76.5t-75 -31.5q-41 0 -69.5 29.5t-28.5 70.5z" />
<glyph unicode="&#xb8;" horiz-adv-x="602" d="M14 -483q69 75 100.5 129t32 108t-37.5 111l120 51q40 -64 40 -130.5t-33 -130t-99 -138.5h-123z" />
<glyph unicode="&#xb9;" horiz-adv-x="526" d="M227 1397v108l246 86h98l-159 -837h-119l139 721z" />
<glyph unicode="&#xba;" horiz-adv-x="833" d="M139 485l19 101h549l-21 -101h-547zM209 952q0 198 106 322.5t273 124.5q117 0 181.5 -62t64.5 -174q0 -196 -106 -320t-273 -124q-117 0 -181.5 61.5t-64.5 171.5zM334 971q0 -152 141 -152q109 0 171.5 97.5t62.5 228.5q0 151 -142 151q-109 0 -171 -96.5t-62 -228.5z " />
<glyph unicode="&#xbb;" horiz-adv-x="985" d="M129 317l268 293l-153 287l98 55l188 -350l-317 -344zM494 317l254 293l-140 289l101 55l170 -352l-299 -346z" />
<glyph unicode="&#xbc;" horiz-adv-x="1605" d="M-47 -213l1616 1851l78 -61l-1616 -1851zM227 1397v108l246 86h98l-159 -837h-119l139 721zM778 -12l8 84l447 557h172l-102 -539h139l-21 -102h-139l-39 -197h-115l39 197h-389zM909 86q76 4 277 4l84 442z" />
<glyph unicode="&#xbd;" horiz-adv-x="1671" d="M-47 -213l1616 1851l78 -61l-1616 -1851zM227 1397v108l246 86h98l-159 -837h-119l139 721zM893 -209l18 94l260 219q205 173 205 314q0 127 -127 127q-94 0 -188 -51l-8 92q105 57 221 57q112 0 170.5 -52.5t58.5 -152.5q0 -182 -227 -375l-201 -167q159 7 369 4 l-21 -109h-530z" />
<glyph unicode="&#xbe;" horiz-adv-x="1652" d="M-2 -213l1616 1851l78 -61l-1616 -1851zM137 756l25 104q61 -22 145 -22q108 0 172 51t64 135q0 117 -195 117q-42 0 -88 -6l16 96q149 0 230.5 46.5t81.5 129.5q0 102 -123 102q-85 0 -168 -36v98q90 35 195 35q112 0 166.5 -46.5t54.5 -127.5q0 -82 -51 -145.5 t-136 -88.5q64 -12 104 -55.5t40 -102.5q0 -127 -107 -214t-266 -87q-77 0 -160 17zM823 -12l8 84l447 557h172l-102 -539h139l-21 -102h-139l-39 -197h-114l38 197h-389zM954 86q76 4 277 4l84 442z" />
<glyph unicode="&#xbf;" horiz-adv-x="886" d="M37 -68q0 67 27.5 125t70.5 101t94 85t100 86.5t87 95t56.5 121.5t6.5 156h129q12 -90 -5.5 -166.5t-55 -131t-85 -102.5t-97.5 -89t-92 -80.5t-68.5 -88.5t-26.5 -103q0 -97 93.5 -162.5t271.5 -85.5l-39 -119q-232 24 -349.5 122t-117.5 236zM492 936q0 41 28 69.5 t68 28.5q41 0 68.5 -28t27.5 -68q0 -41 -28.5 -69.5t-69.5 -28.5q-40 0 -67 28t-27 68z" />
<glyph unicode="&#xc0;" horiz-adv-x="1220" d="M-61 0l768 1382h145l240 -1382h-142l-55 354h-625l-192 -354h-139zM326 459h551l-99 600q-22 171 -24 186h-2q-68 -133 -95 -182zM549 1620l65 109l301 -154l-43 -76z" />
<glyph unicode="&#xc1;" horiz-adv-x="1220" d="M-61 0l768 1382h145l240 -1382h-142l-55 354h-625l-192 -354h-139zM326 459h551l-99 600q-22 171 -24 186h-2q-68 -133 -95 -182zM694 1581l355 148l26 -113l-364 -117z" />
<glyph unicode="&#xc2;" horiz-adv-x="1220" d="M-61 0l768 1382h145l240 -1382h-142l-55 354h-625l-192 -354h-139zM326 459h551l-99 600q-22 171 -24 186h-2q-68 -133 -95 -182zM504 1579l342 166l276 -168l-55 -82l-242 129l-290 -129z" />
<glyph unicode="&#xc3;" horiz-adv-x="1220" d="M-61 0l768 1382h145l240 -1382h-142l-55 354h-625l-192 -354h-139zM326 459h551l-99 600q-22 171 -24 186h-2q-68 -133 -95 -182zM487 1587q38 66 93.5 101.5t119.5 35.5q45 0 85 -17.5t64 -38.5t56 -38.5t62 -17.5q73 0 137 94l65 -53q-84 -137 -211 -137q-45 0 -85 18 t-64.5 39t-56.5 39t-62 18q-71 0 -137 -96z" />
<glyph unicode="&#xc4;" horiz-adv-x="1220" d="M-61 0l768 1382h145l240 -1382h-142l-55 354h-625l-192 -354h-139zM326 459h551l-99 600q-22 171 -24 186h-2q-68 -133 -95 -182zM514 1589q0 38 26.5 65t63.5 27q38 0 62 -24.5t24 -61.5q0 -38 -26.5 -64t-63.5 -26t-61.5 24.5t-24.5 59.5zM942 1591q0 37 26.5 63.5 t63.5 26.5t61.5 -24.5t24.5 -61.5q0 -38 -26.5 -64t-63.5 -26q-38 0 -62 24.5t-24 61.5z" />
<glyph unicode="&#xc5;" horiz-adv-x="1220" d="M-61 0l768 1382h145l240 -1382h-142l-55 354h-625l-192 -354h-139zM326 459h551l-99 600q-22 171 -24 186h-2q-68 -133 -95 -182zM621 1622q0 106 69.5 178t181.5 72q81 0 131 -44t50 -118q0 -106 -70 -178t-182 -72q-80 0 -130 44t-50 118zM727 1636q0 -44 23 -67 t65 -23q58 0 94.5 42.5t36.5 107.5q0 44 -23 68t-65 24q-58 0 -94.5 -43.5t-36.5 -108.5z" />
<glyph unicode="&#xc6;" horiz-adv-x="1554" d="M-186 0l1009 1382h738l-23 -106h-532l-97 -510h496l-21 -104h-495l-105 -553h543l-20 -109h-670l68 354h-490l-254 -354h-147zM289 461h434l156 815h-9q-63 -99 -194 -279z" />
<glyph unicode="&#xc7;" horiz-adv-x="1196" d="M119 455q0 138 26.5 268.5t88 254t152 215.5t227.5 148t305 56q162 0 319 -45l-37 -119q-157 53 -309 53q-128 0 -235 -46.5t-180 -125.5t-123.5 -183.5t-73.5 -219t-23 -234.5q0 -82 22 -149t68 -119.5t124 -81.5t183 -29q83 0 182.5 21.5t172.5 54.5l10 -111 q-85 -36 -192 -56.5t-205 -20.5q-112 0 -201 28t-144.5 73t-91.5 107.5t-50.5 126.5t-14.5 134zM377 -483q69 75 100.5 129t31.5 108t-38 111l121 51q40 -64 40 -130.5t-33 -130t-99 -138.5h-123z" />
<glyph unicode="&#xc8;" horiz-adv-x="1034" d="M98 0l262 1382h691l-21 -106h-561l-98 -510h514l-19 -104h-514l-106 -553h561l-19 -109h-690zM473 1620l66 109l301 -154l-43 -76z" />
<glyph unicode="&#xc9;" horiz-adv-x="1034" d="M98 0l262 1382h691l-21 -106h-561l-98 -510h514l-19 -104h-514l-106 -553h561l-19 -109h-690zM612 1581l355 148l26 -113l-364 -117z" />
<glyph unicode="&#xca;" horiz-adv-x="1034" d="M98 0l262 1382h691l-21 -106h-561l-98 -510h514l-19 -104h-514l-106 -553h561l-19 -109h-690zM422 1579l342 166l276 -168l-55 -82l-242 129l-290 -129z" />
<glyph unicode="&#xcb;" horiz-adv-x="1034" d="M98 0l262 1382h691l-21 -106h-561l-98 -510h514l-19 -104h-514l-106 -553h561l-19 -109h-690zM420 1589q0 38 26.5 65t63.5 27q38 0 62 -24.5t24 -61.5q0 -38 -26.5 -64t-63.5 -26t-61.5 24.5t-24.5 59.5zM848 1591q0 37 26.5 63.5t63.5 26.5t61.5 -24.5t24.5 -61.5 q0 -38 -26.5 -64t-63.5 -26q-38 0 -62 24.5t-24 61.5z" />
<glyph unicode="&#xcc;" horiz-adv-x="514" d="M98 0l262 1382h129l-262 -1382h-129zM199 1620l65 109l301 -154l-43 -76z" />
<glyph unicode="&#xcd;" horiz-adv-x="514" d="M98 0l262 1382h129l-262 -1382h-129zM362 1581l355 148l26 -113l-364 -117z" />
<glyph unicode="&#xce;" horiz-adv-x="514" d="M98 0l262 1382h129l-262 -1382h-129zM150 1579l342 166l276 -168l-55 -82l-242 129l-291 -129z" />
<glyph unicode="&#xcf;" horiz-adv-x="514" d="M98 0l262 1382h129l-262 -1382h-129zM180 1589q0 38 26.5 65t63.5 27q38 0 62 -24.5t24 -61.5q0 -38 -26.5 -64t-63.5 -26t-61.5 24.5t-24.5 59.5zM569 1591q0 37 26.5 63.5t63.5 26.5t60.5 -24.5t23.5 -61.5q0 -38 -26.5 -64t-63.5 -26t-60.5 24.5t-23.5 61.5z" />
<glyph unicode="&#xd0;" horiz-adv-x="1392" d="M35 662l20 102h203l117 618q50 0 179.5 3.5t193.5 3.5q132 0 234.5 -25.5t170 -70t110.5 -109t61.5 -138t18.5 -161.5q0 -138 -33.5 -266t-105.5 -242.5t-176.5 -199t-256.5 -134t-335 -49.5q-67 0 -169 3t-152 3l125 662h-205zM264 117q111 -15 191 -15 q156 0 283.5 43.5t213 117.5t144 173.5t84.5 208t26 225.5q0 73 -14 132.5t-48 112.5t-88 89t-137 57t-192 21q-67 0 -244 -6l-98 -512h322l-21 -102h-319z" />
<glyph unicode="&#xd1;" horiz-adv-x="1386" d="M98 0l262 1382h166l414 -962q45 -112 82 -227q32 228 145 833l68 356h127l-262 -1382h-129l-418 977q-64 143 -104 276q-61 -402 -150 -858l-74 -395h-127zM569 1587q38 66 93.5 101.5t119.5 35.5q45 0 85 -17.5t64 -38.5t56 -38.5t62 -17.5q73 0 137 94l65 -53 q-84 -137 -211 -137q-45 0 -85 18t-64.5 39t-56.5 39t-62 18q-71 0 -137 -96z" />
<glyph unicode="&#xd2;" horiz-adv-x="1417" d="M113 485q0 181 56 347t155 292t245 200.5t316 74.5q241 0 366 -136t125 -366q0 -145 -35 -281t-103 -250t-160.5 -200t-214 -134t-257.5 -48q-243 0 -368 135.5t-125 365.5zM250 506q0 -189 95 -300.5t286 -111.5q170 0 310 103t219 282.5t79 397.5q0 189 -95 300 t-286 111q-127 0 -240 -60.5t-193.5 -164.5t-127.5 -249t-47 -308zM635 1620l65 109l301 -154l-43 -76z" />
<glyph unicode="&#xd3;" horiz-adv-x="1417" d="M113 485q0 181 56 347t155 292t245 200.5t316 74.5q241 0 366 -136t125 -366q0 -145 -35 -281t-103 -250t-160.5 -200t-214 -134t-257.5 -48q-243 0 -368 135.5t-125 365.5zM250 506q0 -189 95 -300.5t286 -111.5q170 0 310 103t219 282.5t79 397.5q0 189 -95 300 t-286 111q-127 0 -240 -60.5t-193.5 -164.5t-127.5 -249t-47 -308zM834 1581l354 148l26 -113l-364 -117z" />
<glyph unicode="&#xd4;" horiz-adv-x="1417" d="M113 485q0 181 56 347t155 292t245 200.5t316 74.5q241 0 366 -136t125 -366q0 -145 -35 -281t-103 -250t-160.5 -200t-214 -134t-257.5 -48q-243 0 -368 135.5t-125 365.5zM250 506q0 -189 95 -300.5t286 -111.5q170 0 310 103t219 282.5t79 397.5q0 189 -95 300 t-286 111q-127 0 -240 -60.5t-193.5 -164.5t-127.5 -249t-47 -308zM614 1579l342 166l277 -168l-55 -82l-242 129l-291 -129z" />
<glyph unicode="&#xd5;" horiz-adv-x="1417" d="M113 485q0 181 56 347t155 292t245 200.5t316 74.5q241 0 366 -136t125 -366q0 -145 -35 -281t-103 -250t-160.5 -200t-214 -134t-257.5 -48q-243 0 -368 135.5t-125 365.5zM250 506q0 -189 95 -300.5t286 -111.5q170 0 310 103t219 282.5t79 397.5q0 189 -95 300 t-286 111q-127 0 -240 -60.5t-193.5 -164.5t-127.5 -249t-47 -308zM575 1587q38 66 93.5 101.5t119.5 35.5q45 0 85 -17.5t64 -38.5t56 -38.5t62 -17.5q73 0 137 94l65 -53q-84 -137 -210 -137q-45 0 -85 18t-65 39t-57 39t-62 18q-71 0 -137 -96z" />
<glyph unicode="&#xd6;" horiz-adv-x="1417" d="M113 485q0 181 56 347t155 292t245 200.5t316 74.5q241 0 366 -136t125 -366q0 -145 -35 -281t-103 -250t-160.5 -200t-214 -134t-257.5 -48q-243 0 -368 135.5t-125 365.5zM250 506q0 -189 95 -300.5t286 -111.5q170 0 310 103t219 282.5t79 397.5q0 189 -95 300 t-286 111q-127 0 -240 -60.5t-193.5 -164.5t-127.5 -249t-47 -308zM621 1589q0 38 26.5 65t63.5 27q38 0 62 -24.5t24 -61.5q0 -38 -26.5 -64t-63.5 -26t-61.5 24.5t-24.5 59.5zM1049 1591q0 37 26.5 63.5t63.5 26.5t61.5 -24.5t24.5 -61.5q0 -38 -26.5 -64t-63.5 -26 q-38 0 -62 24.5t-24 61.5z" />
<glyph unicode="&#xd7;" d="M74 250l434 362l-295 365l86 70l295 -363l430 363l66 -78l-433 -365l295 -364l-86 -70l-293 362l-432 -362z" />
<glyph unicode="&#xd8;" horiz-adv-x="1417" d="M113 485q0 181 56 347t155 292t245 200.5t316 74.5q94 0 170 -23l108 197l94 -47l-106 -187q225 -126 225 -442q0 -145 -35 -281t-103 -250t-160.5 -200t-214 -134t-257.5 -48q-99 0 -192 28l-117 -213l-94 47l114 209q-204 125 -204 430zM248 506q0 -233 133 -336 l614 1100q-55 18 -139 18q-126 0 -238.5 -60t-193.5 -163.5t-128.5 -249t-47.5 -309.5zM473 121q69 -27 160 -27q101 0 194 38t168 109.5t130.5 167t85.5 216t30 252.5q0 122 -39.5 211.5t-109.5 136.5z" />
<glyph unicode="&#xd9;" horiz-adv-x="1406" d="M169.5 310.5q1.5 71.5 14.5 152.5l176 919h129l-176 -917q-37 -190 31 -282.5t272 -92.5q201 0 316.5 98.5t159.5 335.5l163 858h127l-168 -876q-51 -265 -203.5 -393.5t-412.5 -128.5q-116 0 -200.5 24t-131.5 67.5t-72.5 103.5t-24 131.5zM621 1620l65 109l301 -154 l-43 -76z" />
<glyph unicode="&#xda;" horiz-adv-x="1406" d="M169.5 310.5q1.5 71.5 14.5 152.5l176 919h129l-176 -917q-37 -190 31 -282.5t272 -92.5q201 0 316.5 98.5t159.5 335.5l163 858h127l-168 -876q-51 -265 -203.5 -393.5t-412.5 -128.5q-116 0 -200.5 24t-131.5 67.5t-72.5 103.5t-24 131.5zM854 1581l354 148l27 -113 l-365 -117z" />
<glyph unicode="&#xdb;" horiz-adv-x="1406" d="M169.5 310.5q1.5 71.5 14.5 152.5l176 919h129l-176 -917q-37 -190 31 -282.5t272 -92.5q201 0 316.5 98.5t159.5 335.5l163 858h127l-168 -876q-51 -265 -203.5 -393.5t-412.5 -128.5q-116 0 -200.5 24t-131.5 67.5t-72.5 103.5t-24 131.5zM600 1579l342 166l277 -168 l-56 -82l-241 129l-291 -129z" />
<glyph unicode="&#xdc;" horiz-adv-x="1406" d="M169.5 310.5q1.5 71.5 14.5 152.5l176 919h129l-176 -917q-37 -190 31 -282.5t272 -92.5q201 0 316.5 98.5t159.5 335.5l163 858h127l-168 -876q-51 -265 -203.5 -393.5t-412.5 -128.5q-116 0 -200.5 24t-131.5 67.5t-72.5 103.5t-24 131.5zM606 1589q0 38 26.5 65 t63.5 27q38 0 62 -24.5t24 -61.5q0 -38 -26.5 -64t-63.5 -26t-61.5 24.5t-24.5 59.5zM1034 1591q0 37 26.5 63.5t63.5 26.5t61.5 -24.5t24.5 -61.5q0 -38 -26.5 -64t-63.5 -26q-38 0 -62 24.5t-24 61.5z" />
<glyph unicode="&#xdd;" horiz-adv-x="1042" d="M178 1382h139l166 -495q31 -89 66 -230h2q91 143 156 232l350 493h143l-608 -835l-103 -547h-129l103 547zM668 1581l354 148l27 -113l-365 -117z" />
<glyph unicode="&#xde;" horiz-adv-x="1062" d="M98 0l262 1382h129l-40 -211q118 7 186 7q215 0 326.5 -96t111.5 -251q0 -110 -43.5 -209.5t-121.5 -174.5t-195.5 -119.5t-255.5 -44.5l-178 6l-52 -289h-129zM301 401q94 -12 176 -12q94 0 172.5 26t131 69t89 99t52.5 115t16 119q0 113 -79.5 182.5t-250.5 69.5 q-43 0 -88.5 -2t-69.5 -4l-24 -2z" />
<glyph unicode="&#xdf;" horiz-adv-x="1130" d="M-315 -522l32 110q39 -10 90 -10q116 0 178 79.5t99 272.5l209 1102q46 245 167.5 358t321.5 113q134 0 209.5 -61t75.5 -158q0 -64 -20 -114.5t-51.5 -83t-70 -60t-77 -51t-70 -49t-51.5 -62.5t-20 -84q0 -45 20 -87t49.5 -72t64.5 -66t64.5 -69t49.5 -81t20 -102 q0 -137 -112.5 -228t-291.5 -91q-89 0 -165 12l24 125q89 -27 160 -27q118 0 185 51.5t67 141.5q0 52 -27.5 99t-67 84.5t-78.5 76.5t-66.5 93.5t-27.5 117.5q0 61 20 109.5t51.5 80.5t70.5 59.5t77.5 52t70 51.5t51.5 66t20 87q0 62 -44 99.5t-128 37.5 q-135 0 -219.5 -85.5t-120.5 -273.5l-211 -1110q-47 -247 -149 -354.5t-279 -107.5q-20 0 -45 2t-40 4z" />
<glyph unicode="&#xe0;" horiz-adv-x="1095" d="M80 285q0 94 16 183.5t48 173.5t84 154t120 122.5t160.5 82t200.5 29.5q155 0 290 -29q-128 -662 -190 -1001h-131q23 125 133 477l-4 2q-25 -60 -51.5 -114t-75.5 -128.5t-101 -127t-126.5 -90t-153.5 -37.5q-219 0 -219 303zM211 307q0 -217 121 -217q81 0 167 75.5 t153 188t116.5 235.5t69.5 226l18 92q-90 23 -168 23q-101 0 -183.5 -38t-136 -100t-90 -144.5t-52 -167.5t-15.5 -173zM502 1446l98 76l182 -281l-80 -61z" />
<glyph unicode="&#xe1;" horiz-adv-x="1095" d="M80 285q0 94 16 183.5t48 173.5t84 154t120 122.5t160.5 82t200.5 29.5q155 0 290 -29q-128 -662 -190 -1001h-131q23 125 133 477l-4 2q-25 -60 -51.5 -114t-75.5 -128.5t-101 -127t-126.5 -90t-153.5 -37.5q-219 0 -219 303zM211 307q0 -217 121 -217q81 0 167 75.5 t153 188t116.5 235.5t69.5 226l18 92q-90 23 -168 23q-101 0 -183.5 -38t-136 -100t-90 -144.5t-52 -167.5t-15.5 -173zM614 1247l281 275l78 -86l-299 -256z" />
<glyph unicode="&#xe2;" horiz-adv-x="1095" d="M80 285q0 94 16 183.5t48 173.5t84 154t120 122.5t160.5 82t200.5 29.5q155 0 290 -29q-128 -662 -190 -1001h-131q23 125 133 477l-4 2q-25 -60 -51.5 -114t-75.5 -128.5t-101 -127t-126.5 -90t-153.5 -37.5q-219 0 -219 303zM211 307q0 -217 121 -217q81 0 167 75.5 t153 188t116.5 235.5t69.5 226l18 92q-90 23 -168 23q-101 0 -183.5 -38t-136 -100t-90 -144.5t-52 -167.5t-15.5 -173zM432 1249l305 260l213 -262l-73 -63l-160 178l-236 -178z" />
<glyph unicode="&#xe3;" horiz-adv-x="1095" d="M80 285q0 94 16 183.5t48 173.5t84 154t120 122.5t160.5 82t200.5 29.5q155 0 290 -29q-128 -662 -190 -1001h-131q23 125 133 477l-4 2q-25 -60 -51.5 -114t-75.5 -128.5t-101 -127t-126.5 -90t-153.5 -37.5q-219 0 -219 303zM211 307q0 -217 121 -217q81 0 167 75.5 t153 188t116.5 235.5t69.5 226l18 92q-90 23 -168 23q-101 0 -183.5 -38t-136 -100t-90 -144.5t-52 -167.5t-15.5 -173zM385 1313q37 68 90.5 104.5t114.5 36.5q43 0 82 -18.5t62.5 -40t54 -40t59.5 -18.5q71 0 129 99l70 -56q-38 -67 -92.5 -104t-116.5 -37q-43 0 -81 18.5 t-60.5 40t-52 40t-58.5 18.5q-68 0 -133 -99z" />
<glyph unicode="&#xe4;" horiz-adv-x="1095" d="M80 285q0 94 16 183.5t48 173.5t84 154t120 122.5t160.5 82t200.5 29.5q155 0 290 -29q-128 -662 -190 -1001h-131q23 125 133 477l-4 2q-25 -60 -51.5 -114t-75.5 -128.5t-101 -127t-126.5 -90t-153.5 -37.5q-219 0 -219 303zM211 307q0 -217 121 -217q81 0 167 75.5 t153 188t116.5 235.5t69.5 226l18 92q-90 23 -168 23q-101 0 -183.5 -38t-136 -100t-90 -144.5t-52 -167.5t-15.5 -173zM436 1343q0 41 26 67t64 26q36 0 61 -24t25 -58q0 -41 -26.5 -67.5t-63.5 -26.5q-38 0 -62 24t-24 59zM807 1346q0 39 26.5 64.5t65.5 25.5q36 0 60 -24 t24 -58q0 -41 -26.5 -67.5t-63.5 -26.5q-36 0 -61 25t-25 61z" />
<glyph unicode="&#xe5;" horiz-adv-x="1095" d="M80 285q0 94 16 183.5t48 173.5t84 154t120 122.5t160.5 82t200.5 29.5q155 0 290 -29q-128 -662 -190 -1001h-131q23 125 133 477l-4 2q-25 -60 -51.5 -114t-75.5 -128.5t-101 -127t-126.5 -90t-153.5 -37.5q-219 0 -219 303zM211 307q0 -217 121 -217q81 0 167 75.5 t153 188t116.5 235.5t69.5 226l18 92q-90 23 -168 23q-101 0 -183.5 -38t-136 -100t-90 -144.5t-52 -167.5t-15.5 -173zM510 1298q0 108 71.5 179t186.5 71q79 0 125.5 -45t46.5 -119q0 -106 -70.5 -177.5t-183.5 -71.5q-81 0 -128.5 44.5t-47.5 118.5zM616 1317 q0 -43 22.5 -69.5t63.5 -26.5q58 0 95 42.5t37 102.5q0 43 -21.5 69.5t-64.5 26.5q-58 0 -95 -42t-37 -103z" />
<glyph unicode="&#xe6;" horiz-adv-x="1562" d="M47 207q0 81 35.5 143.5t95.5 103t148.5 68t184 41t212.5 17.5l16 69q33 146 -8.5 214.5t-173.5 68.5q-143 0 -309 -74l-12 103q165 73 342 73q138 0 202 -49.5t84 -132.5q57 77 150.5 129.5t216.5 52.5q136 0 206 -61.5t70 -157.5q0 -316 -673 -342q-15 -69 -15 -147 q0 -138 53.5 -186t190.5 -48q140 0 276 58l11 -105q-147 -61 -336 -61q-159 0 -228.5 60t-83.5 187q-51 -99 -165 -173t-246 -74q-118 0 -181 61.5t-63 161.5zM180 225q0 -57 37 -96t105 -39q130 0 239.5 117t140.5 268q-121 -4 -210 -17t-162.5 -40.5t-111.5 -76 t-38 -116.5zM854 580q272 12 396 66.5t124 154.5q0 63 -44.5 97t-117.5 34q-130 0 -222 -97t-136 -255z" />
<glyph unicode="&#xe7;" horiz-adv-x="856" d="M76 311q0 116 25 223.5t74 197.5t117 157.5t159.5 105t195.5 37.5q112 0 234 -37l-33 -110q-110 45 -213 45q-82 0 -152.5 -36.5t-119 -96.5t-83 -137t-51 -158t-16.5 -160q0 -246 240 -246q124 0 247 56l13 -107q-145 -59 -293 -59q-94 0 -162.5 25t-107.5 70.5 t-56.5 102t-17.5 127.5zM186 -483q69 75 100.5 129t32 108t-37.5 111l120 51q40 -64 40 -130.5t-33 -130t-99 -138.5h-123z" />
<glyph unicode="&#xe8;" horiz-adv-x="954" d="M76 303q0 113 22.5 219.5t69 199t110.5 162.5t153 110t192 40q136 0 206 -61.5t70 -157.5q0 -154 -166.5 -242.5t-507.5 -101.5q-14 -61 -14 -145q0 -138 53.5 -186t190.5 -48q140 0 276 58l10 -105q-147 -61 -335 -61q-167 0 -248.5 73.5t-81.5 245.5zM246 580 q272 10 396 65t124 156q0 63 -44.5 97t-117.5 34q-131 0 -223.5 -97t-134.5 -255zM418 1446l98 76l182 -281l-80 -61z" />
<glyph unicode="&#xe9;" horiz-adv-x="954" d="M76 303q0 113 22.5 219.5t69 199t110.5 162.5t153 110t192 40q136 0 206 -61.5t70 -157.5q0 -154 -166.5 -242.5t-507.5 -101.5q-14 -61 -14 -145q0 -138 53.5 -186t190.5 -48q140 0 276 58l10 -105q-147 -61 -335 -61q-167 0 -248.5 73.5t-81.5 245.5zM246 580 q272 10 396 65t124 156q0 63 -44.5 97t-117.5 34q-131 0 -223.5 -97t-134.5 -255zM537 1247l280 275l78 -86l-299 -256z" />
<glyph unicode="&#xea;" horiz-adv-x="954" d="M76 303q0 113 22.5 219.5t69 199t110.5 162.5t153 110t192 40q136 0 206 -61.5t70 -157.5q0 -154 -166.5 -242.5t-507.5 -101.5q-14 -61 -14 -145q0 -138 53.5 -186t190.5 -48q140 0 276 58l10 -105q-147 -61 -335 -61q-167 0 -248.5 73.5t-81.5 245.5zM246 580 q272 10 396 65t124 156q0 63 -44.5 97t-117.5 34q-131 0 -223.5 -97t-134.5 -255zM377 1249l305 260l213 -262l-74 -63l-159 178l-236 -178z" />
<glyph unicode="&#xeb;" horiz-adv-x="954" d="M76 303q0 113 22.5 219.5t69 199t110.5 162.5t153 110t192 40q136 0 206 -61.5t70 -157.5q0 -154 -166.5 -242.5t-507.5 -101.5q-14 -61 -14 -145q0 -138 53.5 -186t190.5 -48q140 0 276 58l10 -105q-147 -61 -335 -61q-167 0 -248.5 73.5t-81.5 245.5zM246 580 q272 10 396 65t124 156q0 63 -44.5 97t-117.5 34q-131 0 -223.5 -97t-134.5 -255zM383 1343q0 41 26.5 67t63.5 26q36 0 61 -24t25 -58q0 -41 -26.5 -67.5t-63.5 -26.5t-61.5 24t-24.5 59zM754 1346q0 39 26.5 64.5t65.5 25.5q36 0 60 -24t24 -58q0 -41 -26.5 -67.5 t-63.5 -26.5q-36 0 -61 25t-25 61z" />
<glyph unicode="&#xec;" horiz-adv-x="512" d="M98 0l193 1018h125l-193 -1018h-125zM238 1483l112 53l103 -326l-88 -43z" />
<glyph unicode="&#xed;" horiz-adv-x="512" d="M98 0l193 1018h125l-193 -1018h-125zM330 1233l250 293l86 -66l-267 -282z" />
<glyph unicode="&#xee;" horiz-adv-x="512" d="M98 0l193 1018h125l-193 -1018h-125zM158 1247l284 260l187 -262l-76 -61l-135 178l-209 -178z" />
<glyph unicode="&#xef;" horiz-adv-x="512" d="M98 0l193 1018h125l-193 -1018h-125zM160 1343q0 41 26 67t64 26q36 0 61 -24t25 -58q0 -41 -26.5 -67.5t-63.5 -26.5q-38 0 -62 24t-24 59zM496 1346q0 39 26.5 64.5t63.5 25.5q36 0 60 -24t24 -58q0 -41 -26.5 -67.5t-63.5 -26.5q-36 0 -60 25t-24 61z" />
<glyph unicode="&#xf0;" horiz-adv-x="1083" d="M74 348q0 103 24 202.5t73 187t116 153.5t159 104.5t197 38.5q191 0 240 -114q-8 31 -27 76l-18 44q-52 122 -107 199l-242 -100l-43 82l226 94q-46 55 -135 141l129 60q84 -84 133 -148l239 98l41 -84l-225 -94q162 -257 162 -551q0 -115 -23.5 -224.5t-71.5 -205.5 t-115.5 -168t-162 -113.5t-203.5 -41.5q-176 0 -271 91t-95 273zM207 379q0 -137 66 -213t186 -76q91 0 165.5 43t120 108t76.5 146t43.5 152t12.5 131q0 120 -63.5 190t-184.5 70q-96 0 -177.5 -49t-134 -128.5t-81.5 -177t-29 -196.5z" />
<glyph unicode="&#xf1;" horiz-adv-x="1159" d="M96 0l103 530q41 214 90 488h131q-28 -142 -129 -461l4 -2q39 95 88.5 178t112 152.5t140 110t159.5 40.5q135 0 187.5 -91t21.5 -259l-132 -686h-127l125 659q28 138 1.5 203.5t-109.5 65.5q-79 0 -164.5 -75t-152.5 -187t-116.5 -234.5t-68.5 -224.5l-39 -207h-125z M416 1313q37 68 90.5 104.5t114.5 36.5q43 0 82 -18.5t62.5 -40t54 -40t59.5 -18.5q71 0 129 99l69 -56q-38 -67 -92.5 -104t-116.5 -37q-43 0 -81 18.5t-60.5 40t-52 40t-58.5 18.5q-68 0 -133 -99z" />
<glyph unicode="&#xf2;" horiz-adv-x="1083" d="M76 342q0 101 22.5 199.5t69.5 187.5t113.5 157t162 108t207.5 40q175 0 267 -97t92 -261q0 -101 -22.5 -199.5t-70 -187.5t-114 -157t-162 -108t-207.5 -40q-175 0 -266.5 97t-91.5 261zM209 358q0 -119 61.5 -193.5t186.5 -74.5q84 0 154.5 34.5t118.5 91.5t82 131.5 t49.5 153.5t15.5 158q0 119 -61.5 195t-186.5 76q-84 0 -154.5 -35t-118.5 -92t-82 -132t-49.5 -154.5t-15.5 -158.5zM487 1446l99 76l182 -281l-80 -61z" />
<glyph unicode="&#xf3;" horiz-adv-x="1083" d="M76 342q0 101 22.5 199.5t69.5 187.5t113.5 157t162 108t207.5 40q175 0 267 -97t92 -261q0 -101 -22.5 -199.5t-70 -187.5t-114 -157t-162 -108t-207.5 -40q-175 0 -266.5 97t-91.5 261zM209 358q0 -119 61.5 -193.5t186.5 -74.5q84 0 154.5 34.5t118.5 91.5t82 131.5 t49.5 153.5t15.5 158q0 119 -61.5 195t-186.5 76q-84 0 -154.5 -35t-118.5 -92t-82 -132t-49.5 -154.5t-15.5 -158.5zM612 1247l281 275l78 -86l-299 -256z" />
<glyph unicode="&#xf4;" horiz-adv-x="1083" d="M76 342q0 101 22.5 199.5t69.5 187.5t113.5 157t162 108t207.5 40q175 0 267 -97t92 -261q0 -101 -22.5 -199.5t-70 -187.5t-114 -157t-162 -108t-207.5 -40q-175 0 -266.5 97t-91.5 261zM209 358q0 -119 61.5 -193.5t186.5 -74.5q84 0 154.5 34.5t118.5 91.5t82 131.5 t49.5 153.5t15.5 158q0 119 -61.5 195t-186.5 76q-84 0 -154.5 -35t-118.5 -92t-82 -132t-49.5 -154.5t-15.5 -158.5zM424 1249l305 260l213 -262l-74 -63l-159 178l-236 -178z" />
<glyph unicode="&#xf5;" horiz-adv-x="1083" d="M76 342q0 101 22.5 199.5t69.5 187.5t113.5 157t162 108t207.5 40q175 0 267 -97t92 -261q0 -101 -22.5 -199.5t-70 -187.5t-114 -157t-162 -108t-207.5 -40q-175 0 -266.5 97t-91.5 261zM209 358q0 -119 61.5 -193.5t186.5 -74.5q84 0 154.5 34.5t118.5 91.5t82 131.5 t49.5 153.5t15.5 158q0 119 -61.5 195t-186.5 76q-84 0 -154.5 -35t-118.5 -92t-82 -132t-49.5 -154.5t-15.5 -158.5zM379 1313q37 68 90.5 104.5t114.5 36.5q43 0 82 -18.5t62.5 -40t54 -40t59.5 -18.5q70 0 129 99l69 -56q-38 -67 -92.5 -104t-116.5 -37q-43 0 -81 18.5 t-60 40t-51.5 40t-58.5 18.5q-70 0 -134 -99z" />
<glyph unicode="&#xf6;" horiz-adv-x="1083" d="M76 342q0 101 22.5 199.5t69.5 187.5t113.5 157t162 108t207.5 40q175 0 267 -97t92 -261q0 -101 -22.5 -199.5t-70 -187.5t-114 -157t-162 -108t-207.5 -40q-175 0 -266.5 97t-91.5 261zM209 358q0 -119 61.5 -193.5t186.5 -74.5q84 0 154.5 34.5t118.5 91.5t82 131.5 t49.5 153.5t15.5 158q0 119 -61.5 195t-186.5 76q-84 0 -154.5 -35t-118.5 -92t-82 -132t-49.5 -154.5t-15.5 -158.5zM426 1343q0 41 26 67t64 26q36 0 61 -24t25 -58q0 -41 -26.5 -67.5t-63.5 -26.5q-38 0 -62 24t-24 59zM797 1346q0 39 26.5 64.5t65.5 25.5q36 0 60 -24 t24 -58q0 -41 -26.5 -67.5t-63.5 -26.5q-36 0 -61 25t-25 61z" />
<glyph unicode="&#xf7;" d="M98 555l21 109h944l-19 -109h-946zM399 195q0 41 28.5 69.5t68.5 28.5q41 0 68.5 -28t27.5 -68q0 -41 -28 -70t-68 -29q-41 0 -69 28.5t-28 68.5zM561 1022q0 40 28 69t68 29q41 0 69 -29t28 -69q0 -41 -29 -69.5t-70 -28.5q-40 0 -67 28.5t-27 69.5z" />
<glyph unicode="&#xf8;" horiz-adv-x="1083" d="M76 342q0 101 22.5 199.5t69.5 187.5t113.5 157t162 108t207.5 40q39 0 105 -8l110 197l88 -45l-104 -189q160 -91 160 -313q0 -101 -22.5 -199.5t-70 -187.5t-114 -157t-162 -108t-207.5 -40q-82 0 -141 20l-119 -211l-88 47l119 209q-129 94 -129 293zM205 358 q0 -125 65 -196l428 762q-31 8 -73 8q-102 -1 -185 -53.5t-132.5 -137t-76 -183.5t-26.5 -200zM350 106q56 -18 111 -18q104 1 187 54.5t132 138t75 182t26 196.5q0 151 -93 224z" />
<glyph unicode="&#xf9;" horiz-adv-x="1159" d="M158 332l133 686h125l-125 -660q-28 -138 -1.5 -203t109.5 -65q79 0 164.5 75t152.5 187t116.5 234.5t68.5 224.5l39 207h125l-102 -531q-59 -310 -91 -487h-129q22 129 127 461l-4 2q-39 -96 -88.5 -178.5t-112 -152t-139.5 -110t-159 -40.5q-135 0 -187.5 91t-21.5 259 zM508 1446l98 76l182 -281l-79 -61z" />
<glyph unicode="&#xfa;" horiz-adv-x="1159" d="M158 332l133 686h125l-125 -660q-28 -138 -1.5 -203t109.5 -65q79 0 164.5 75t152.5 187t116.5 234.5t68.5 224.5l39 207h125l-102 -531q-59 -310 -91 -487h-129q22 129 127 461l-4 2q-39 -96 -88.5 -178.5t-112 -152t-139.5 -110t-159 -40.5q-135 0 -187.5 91t-21.5 259 zM653 1247l281 275l78 -86l-299 -256z" />
<glyph unicode="&#xfb;" horiz-adv-x="1159" d="M158 332l133 686h125l-125 -660q-28 -138 -1.5 -203t109.5 -65q79 0 164.5 75t152.5 187t116.5 234.5t68.5 224.5l39 207h125l-102 -531q-59 -310 -91 -487h-129q22 129 127 461l-4 2q-39 -96 -88.5 -178.5t-112 -152t-139.5 -110t-159 -40.5q-135 0 -187.5 91t-21.5 259 zM461 1249l305 260l213 -262l-74 -63l-160 178l-235 -178z" />
<glyph unicode="&#xfc;" horiz-adv-x="1159" d="M158 332l133 686h125l-125 -660q-28 -138 -1.5 -203t109.5 -65q79 0 164.5 75t152.5 187t116.5 234.5t68.5 224.5l39 207h125l-102 -531q-59 -310 -91 -487h-129q22 129 127 461l-4 2q-39 -96 -88.5 -178.5t-112 -152t-139.5 -110t-159 -40.5q-135 0 -187.5 91t-21.5 259 zM467 1343q0 41 26.5 67t63.5 26q36 0 61 -24t25 -58q0 -41 -26.5 -67.5t-63.5 -26.5t-61.5 24t-24.5 59zM838 1346q0 39 26.5 64.5t65.5 25.5q36 0 60 -24t24 -58q0 -41 -26.5 -67.5t-63.5 -26.5q-36 0 -61 25t-25 61z" />
<glyph unicode="&#xfd;" horiz-adv-x="931" d="M-244 -524l21 116q38 -8 73 -8q117 0 236 119q91 90 128.5 188t37.5 248q0 159 -36.5 393.5t-98.5 485.5h145q48 -221 80.5 -444.5t32.5 -337.5q0 -128 -23 -222h2q58 101 103 187q174 316 403 858l121 -41q-431 -1010 -780 -1362q-97 -96 -189 -140t-196 -44zM547 1247 l280 275l78 -86l-299 -256z" />
<glyph unicode="&#xfe;" horiz-adv-x="1093" d="M-2 -514l385 2009h127l-90 -459q-26 -151 -129 -487l4 -2q41 103 92.5 189t114.5 154.5t139 107t158 38.5q110 0 165.5 -73t55.5 -230q0 -114 -22.5 -219.5t-72 -202t-122 -168t-179 -113.5t-235.5 -42q-79 0 -168 14l-96 -516h-127zM246 119q85 -29 168 -29q99 0 181 38 t135.5 99.5t90 143.5t52.5 167t16 173q0 217 -123 217q-81 0 -166.5 -75t-152 -187.5t-116 -234t-69.5 -222.5z" />
<glyph unicode="&#xff;" horiz-adv-x="931" d="M-244 -524l21 116q38 -8 73 -8q117 0 236 119q91 90 128.5 188t37.5 248q0 159 -36.5 393.5t-98.5 485.5h145q48 -221 80.5 -444.5t32.5 -337.5q0 -128 -23 -222h2q58 101 103 187q174 316 403 858l121 -41q-431 -1010 -780 -1362q-97 -96 -189 -140t-196 -44zM354 1343 q0 41 26 67t64 26q36 0 61 -24t25 -58q0 -41 -26.5 -67.5t-63.5 -26.5q-38 0 -62 24t-24 59zM725 1346q0 39 26.5 64.5t65.5 25.5q36 0 60 -24t24 -58q0 -41 -26.5 -67.5t-63.5 -26.5q-36 0 -61 25t-25 61z" />
<glyph unicode="&#x152;" horiz-adv-x="1755" d="M113 485q0 181 56 347t155 292t245 200.5t316 74.5q102 0 221 -17h659l-20 -106h-541l-96 -510h514l-20 -104h-515l-104 -553h541l-21 -109h-661q-128 -16 -236 -16q-243 0 -368 135.5t-125 365.5zM250 506q0 -189 95 -300.5t286 -111.5q107 0 225 25l217 1141 q-92 28 -215 28q-127 0 -240 -60.5t-193.5 -164.5t-127.5 -249t-47 -308z" />
<glyph unicode="&#x153;" horiz-adv-x="1718" d="M76 342q0 101 22.5 199.5t69.5 187.5t113.5 157t162 108t207.5 40q134 0 219 -60.5t115 -170.5q66 108 170.5 169.5t233.5 61.5q135 0 205.5 -61.5t70.5 -157.5q0 -154 -167.5 -242.5t-508.5 -101.5q-12 -53 -12 -145q0 -138 52.5 -186t189.5 -48q142 0 278 58l8 -105 q-144 -61 -334 -61q-142 0 -218.5 52t-96.5 171q-148 -223 -422 -223q-175 0 -266.5 97t-91.5 261zM209 358q0 -119 61.5 -193.5t186.5 -74.5q84 0 154.5 34.5t118.5 91.5t82 131.5t49.5 153.5t15.5 158q0 119 -61.5 195t-186.5 76q-84 0 -154.5 -35t-118.5 -92t-82 -132 t-49.5 -154.5t-15.5 -158.5zM1012 580q271 10 395.5 65t124.5 156q0 63 -44.5 97t-117.5 34q-132 0 -225 -97.5t-133 -254.5z" />
<glyph unicode="&#x178;" horiz-adv-x="1042" d="M178 1382h139l166 -495q31 -89 66 -230h2q91 143 156 232l350 493h143l-608 -835l-103 -547h-129l103 547zM424 1589q0 38 26.5 65t63.5 27q38 0 62 -24.5t24 -61.5q0 -38 -26.5 -64t-63.5 -26t-61.5 24.5t-24.5 59.5zM852 1591q0 37 26.5 63.5t63.5 26.5t61.5 -24.5 t24.5 -61.5q0 -38 -26.5 -64t-63.5 -26q-38 0 -62 24.5t-24 61.5z" />
<glyph unicode="&#x2c6;" horiz-adv-x="899" d="M334 1249l305 260l213 -262l-74 -63l-160 178l-235 -178z" />
<glyph unicode="&#x2dc;" horiz-adv-x="1040" d="M348 1313q37 68 90.5 104.5t114.5 36.5q43 0 82 -18.5t62.5 -40t54 -40t59.5 -18.5q71 0 129 99l70 -56q-38 -67 -92.5 -104t-116.5 -37q-43 0 -81 18.5t-60.5 40t-52 40t-58.5 18.5q-69 0 -133 -99z" />
<glyph unicode="&#x2000;" horiz-adv-x="936" />
<glyph unicode="&#x2001;" horiz-adv-x="1872" />
<glyph unicode="&#x2002;" horiz-adv-x="936" />
<glyph unicode="&#x2003;" horiz-adv-x="1872" />
<glyph unicode="&#x2004;" horiz-adv-x="624" />
<glyph unicode="&#x2005;" horiz-adv-x="468" />
<glyph unicode="&#x2006;" horiz-adv-x="312" />
<glyph unicode="&#x2007;" horiz-adv-x="312" />
<glyph unicode="&#x2008;" horiz-adv-x="234" />
<glyph unicode="&#x2009;" horiz-adv-x="374" />
<glyph unicode="&#x200a;" horiz-adv-x="104" />
<glyph unicode="&#x2010;" horiz-adv-x="655" d="M109 549l20 106h459l-23 -106h-456z" />
<glyph unicode="&#x2011;" horiz-adv-x="655" d="M109 549l20 106h459l-23 -106h-456z" />
<glyph unicode="&#x2012;" horiz-adv-x="655" d="M109 549l20 106h459l-23 -106h-456z" />
<glyph unicode="&#x2013;" d="M8 555l21 111h1126l-20 -111h-1127z" />
<glyph unicode="&#x2014;" horiz-adv-x="2048" d="M260 555l21 111h1544l-21 -111h-1544z" />
<glyph unicode="&#x2018;" horiz-adv-x="456" d="M255 1113q-30 75 33 187q66 116 216 226l49 -60q-201 -170 -141 -282q24 -43 0 -85t-74 -42q-60 0 -83 56z" />
<glyph unicode="&#x2019;" horiz-adv-x="456" d="M199 1108q105 88 135.5 159t3.5 122q-22 43 1.5 85t72.5 42q61 0 84 -56q31 -75 -33 -187q-65 -114 -215 -224z" />
<glyph unicode="&#x201a;" horiz-adv-x="456" d="M-53 -227q201 170 139 282q-22 43 1.5 84t72.5 41q61 0 84 -56q31 -75 -33 -187q-65 -114 -215 -224z" />
<glyph unicode="&#x201c;" horiz-adv-x="794" d="M255 1115q-31 76 32 187q66 116 217 226l49 -60q-201 -170 -141 -282q22 -43 -1.5 -85t-72.5 -42q-60 0 -83 56zM598 1116q-31 76 33 188q67 115 215 224l49 -60q-201 -170 -141 -282q24 -43 0.5 -85t-72.5 -42q-61 0 -84 57z" />
<glyph unicode="&#x201d;" horiz-adv-x="794" d="M199 1108q106 88 137 159.5t2 121.5q-22 43 1.5 85t72.5 42q61 0 84 -56q31 -75 -33 -187q-65 -114 -215 -224zM539 1108q106 88 137 159.5t4 121.5q-24 43 0 85t74 42q60 0 83 -56q30 -75 -34 -187q-66 -114 -215 -224z" />
<glyph unicode="&#x201e;" horiz-adv-x="794" d="M-55 -227q201 170 139 282q-22 43 1.5 84t72.5 41q60 0 83 -56q31 -76 -34 -188q-65 -114 -213 -223zM285 -227q200 169 141 282q-22 43 0.5 84t71.5 41q61 0 84 -56q31 -75 -33 -187q-65 -114 -215 -224z" />
<glyph unicode="&#x2022;" horiz-adv-x="858" d="M242 598q0 92 62.5 154.5t150.5 62.5q85 0 142.5 -58.5t57.5 -138.5q0 -92 -62.5 -154.5t-150.5 -62.5q-85 0 -142.5 58.5t-57.5 138.5z" />
<glyph unicode="&#x202f;" horiz-adv-x="374" />
<glyph unicode="&#x2039;" horiz-adv-x="630" d="M143 606l312 346l80 -61l-261 -291l152 -283l-98 -61z" />
<glyph unicode="&#x203a;" horiz-adv-x="630" d="M133 322l260 288l-147 283l98 59l180 -350l-311 -346z" />
<glyph unicode="&#x205f;" horiz-adv-x="468" />
<glyph unicode="&#x20ac;" horiz-adv-x="1187" d="M25 485l18 95h186q8 76 39 206h-186l18 95h193q82 242 244 380t405 138q93 0 179.5 -24t140.5 -62l-56 -101q-51 36 -127.5 60t-165.5 24q-172 0 -293.5 -110.5t-187.5 -304.5h488l-17 -95h-495q-27 -88 -43 -206h495l-16 -95h-492q-15 -190 70 -291.5t256 -101.5 q175 0 348 103l33 -95q-101 -60 -199 -88t-219 -28q-216 0 -326.5 126t-95.5 375h-194z" />
<glyph unicode="&#x2122;" horiz-adv-x="1417" d="M262 1300l14 82h420l-14 -82h-156l-94 -493h-108l96 493h-158zM637 807l192 575h140l37 -360l8 -102l33 92l184 370h141l-26 -575h-103l14 340l9 119l-45 -101l-181 -358h-112l-37 362l-8 97l-23 -76l-127 -383h-96z" />
<glyph unicode="&#x25fc;" horiz-adv-x="1064" d="M0 0v1065h1065v-1065h-1065z" />
<glyph unicode="&#xfb01;" horiz-adv-x="1171" d="M-365 -512l31 111q97 -19 156 -19q125 0 196.5 76.5t108.5 269.5l188 989h-229l18 103h230l10 55q37 208 163.5 320t336.5 112q141 0 278 -37l-39 -108q-122 39 -249 39q-301 0 -359 -307l-14 -74h616l-194 -1018h-125l174 915h-492l-186 -981q-46 -249 -154.5 -355.5 t-298.5 -106.5q-84 0 -166 16z" />
<glyph unicode="&#xfb02;" horiz-adv-x="1171" d="M-365 -512l31 111q97 -19 156 -19q125 0 196.5 76.5t108.5 269.5l188 989h-229l18 103h230l18 96q37 196 157 293.5t333 97.5q150 0 321 -26l-280 -1479h-125l262 1384q-93 17 -191 17q-153 0 -237 -67t-113 -220l-18 -96h284l-18 -103h-287l-186 -981 q-46 -249 -154.5 -355.5t-298.5 -106.5q-84 0 -166 16z" />
<glyph unicode="&#xfb03;" horiz-adv-x="1779" d="M-365 -512l31 111q97 -19 156 -19q125 0 196.5 76.5t108.5 269.5l188 989h-229l18 103h230l10 57q34 192 151 302t326 110q74 0 168 -19t168 -45q118 82 295 82q142 0 279 -37l-39 -108q-122 39 -250 39q-300 0 -361 -307l-12 -74h617l-195 -1018h-127l176 915h-491 l-183 -956q-43 -234 -158 -352.5t-329 -118.5q-166 0 -316 59q-101 -75 -262 -75q-84 0 -166 16zM147 -358q126 -48 246 -48q151 0 230 82.5t116 280.5l185 958h-484l-186 -981q-33 -179 -107 -292zM461 1018h481l10 55q27 154 109 258q-128 51 -254 51q-149 0 -229 -75 t-107 -234z" />
<glyph unicode="&#xfb04;" horiz-adv-x="1781" d="M-365 -512l31 111q97 -19 156 -19q125 0 196.5 76.5t108.5 269.5l188 989h-229l18 103h230l10 57q34 192 151 302t326 110q155 0 324 -62q113 80 309 80q147 0 318 -26l-279 -1479h-125l260 1384q-92 15 -190 15q-154 0 -238.5 -66t-114.5 -219l-16 -96h285l-19 -103 h-286l-183 -956q-43 -234 -158 -352.5t-329 -118.5q-166 0 -316 59q-101 -75 -262 -75q-84 0 -166 16zM147 -358q126 -48 246 -48q151 0 230 82.5t116 280.5l185 958h-484l-186 -981q-33 -179 -107 -292zM461 1018h481l19 96q22 128 90 219q-123 49 -244 49q-149 0 -229 -75 t-107 -234z" />
</font>
</defs>
</svg>
